<svg width="64" height="62" viewBox="0 0 64 62" fill="none" xmlns="http://www.w3.org/2000/svg">
<path fill-rule="evenodd" clip-rule="evenodd" d="M50.3154 2.24262C48.7258 0.739729 46.6914 0.0180664 44.6412 0.0180664C42.3332 0.0180664 40.0024 0.932173 38.2645 2.6802L37.5188 3.42936L36.773 2.67791C35.0352 0.932173 32.7044 0.0180664 30.3964 0.0180664C28.3461 0.0180664 26.3118 0.739729 24.7222 2.24262C21.226 5.54852 21.1644 11.079 24.5352 14.4651L37.5188 27.5077L50.5024 14.4651C53.8731 11.079 53.8115 5.54852 50.3154 2.24262Z" fill="#2FB0AB"/>
<path fill-rule="evenodd" clip-rule="evenodd" d="M63.0592 34.1491C61.0637 32.7905 58.7124 33.1754 56.6302 34.3828C54.548 35.5901 42.5929 45.8584 42.5929 45.8584L30.8249 45.8607C30.2776 45.8607 29.6846 45.2421 29.6846 44.6945C29.6846 44.0508 30.2434 43.5491 30.8249 43.5491H38.0248C40.5449 43.5491 43.3661 41.8995 43.3661 38.9671C43.3661 35.8513 40.5449 34.3851 38.0248 34.3851C33.6529 34.3851 32.8022 34.4034 32.8022 34.4034C31.0507 34.4034 29.2741 34.298 27.9057 33.5626C26.0812 32.6233 23.9785 32.0918 21.7343 32.0918C17.9668 32.0918 14.5937 33.6016 12.2812 35.9819L0 48.1287L13.6837 61.8747L18.245 57.2927H41.3409C43.6397 57.2927 45.8588 56.4451 47.5761 54.9124L63.2143 37.2901C64.1699 36.4378 64.1152 34.8708 63.0592 34.1491Z" fill="#75B547"/>
</svg>
