<svg width="41" height="64" viewBox="0 0 41 64" fill="none" xmlns="http://www.w3.org/2000/svg">
<path fill-rule="evenodd" clip-rule="evenodd" d="M31.6816 30.125C28.0301 30.125 24.734 31.6525 22.3634 34.0938V25.3662C23.2903 24.565 24.2072 23.7788 25.052 23.0613C30.9809 18.025 35.2647 14.2625 35.2647 8.92125C35.2647 3.91875 31.6145 0 26.9517 0C24.0829 0 21.9335 1.49625 20.501 3.40375C19.0673 1.4975 16.9179 0 14.0479 0C9.38505 0 5.73481 3.91875 5.73481 8.92125C5.73481 14.2625 10.0187 18.025 15.9475 23.0613C16.7924 23.7788 17.7093 24.565 18.6361 25.3662V34.0938C16.2656 31.6525 12.9694 30.125 9.31796 30.125H3.72705V32C3.72705 35.6688 5.23163 38.9912 7.65311 41.375H33.3464C35.7679 38.9912 37.2725 35.6688 37.2725 32V30.125H31.6816Z" fill="#2FB0AB"/>
<path fill-rule="evenodd" clip-rule="evenodd" d="M0 45.125V48.875H4.80818L7.79124 64H33.2088L36.1918 48.875H41V45.125H0Z" fill="#75B547"/>
</svg>
