<svg width="56" height="64" viewBox="0 0 56 64" fill="none" xmlns="http://www.w3.org/2000/svg">
<path fill-rule="evenodd" clip-rule="evenodd" d="M28.0619 0C21.8901 0 16.8867 5.16175 16.8867 11.375C16.8867 17.5882 21.89 22.625 28.0619 22.625C34.2338 22.625 39.2371 17.5882 39.2371 11.375C39.2371 5.16175 34.2337 0 28.0619 0Z" fill="#75B547"/>
<path fill-rule="evenodd" clip-rule="evenodd" d="M36.3888 38.6875C31.5342 38.6875 29.8736 44.5194 29.8572 44.578C29.8522 44.5959 29.8334 44.6039 29.8279 44.6215C29.8279 44.6213 29.8284 44.6213 29.8284 44.621C29.5881 45.4035 28.8842 45.9458 28.0674 45.9494C28.0656 45.9494 28.0638 45.9494 28.0601 45.9494C27.2289 45.9494 26.4977 45.3909 26.2685 44.5853C26.2012 44.3435 24.5442 38.6874 19.7351 38.6874C16.0483 38.6874 13.269 41.7929 13.269 45.9128C13.269 50.8164 17.6616 55.7378 24.9408 61.923C25.5621 62.4501 26.2011 62.993 26.8563 63.5535C27.5507 64.1473 28.5713 64.149 29.2659 63.5555C29.9207 62.9959 30.5585 62.4541 31.1777 61.9265C36.7155 57.2236 42.8549 51.1778 42.8549 45.9125C42.8549 41.793 40.0758 38.6875 36.3888 38.6875Z" fill="#75B547"/>
<path fill-rule="evenodd" clip-rule="evenodd" d="M37.5608 22.8125C34.9905 25.0251 31.7125 26.375 28.0619 26.375C24.4114 26.375 21.1333 25.025 18.563 22.8125C8.13289 23.8624 0.124023 32.6874 0.124023 43.375V46C0.124023 52.075 2.47081 57.7749 6.7175 62.0499C6.7175 62.0874 6.7175 62.0874 6.75475 62.0874C7.90951 63.2499 9.51129 63.9249 11.1503 63.9624C13.8738 63.8937 16.0769 61.8136 16.4398 59.1382C12.9678 55.5474 9.54394 50.9461 9.54394 45.9128C9.54394 39.5075 14.4051 34.9374 19.7178 34.9374C19.7214 34.9374 19.7241 34.938 19.7279 34.938C19.7304 34.938 19.7326 34.9374 19.7352 34.9374C23.2408 34.9374 26.17 36.8785 28.0638 39.7183C29.9753 36.8515 32.8249 34.9374 36.3888 34.9374C36.3913 34.9374 36.3935 34.938 36.3961 34.938C36.3997 34.938 36.4025 34.9374 36.4062 34.9374C42.0499 34.9374 46.5801 39.8107 46.5801 45.9128C46.4045 46.3876 47.3357 51.0115 39.6793 59.0879C40.0212 61.7871 42.2332 63.8932 44.9738 63.9624C46.6128 63.9249 48.2146 63.2499 49.3694 62.0874C49.4066 62.0874 49.4066 62.0874 49.4066 62.0499C53.6531 57.7749 55.9999 52.075 55.9999 46V43.375C55.9999 32.6874 47.9909 23.8624 37.5608 22.8125Z" fill="#2FB0AB"/>
</svg>
