<svg width="64" height="64" viewBox="0 0 64 64" fill="none" xmlns="http://www.w3.org/2000/svg">
<path fill-rule="evenodd" clip-rule="evenodd" d="M20.2639 46.1138C19.8514 41.8525 20.4701 38.1538 22.1051 35.1188C23.7639 32.04 26.36 29.8388 29.6138 28.7525C29.8825 28.6625 30.1538 28.5813 30.4263 28.5088C29.55 27.48 29.0625 26.1825 29.0625 24.8137V17.2062C29.0625 12.4202 25.5701 8.43538 21.0004 7.66288C20.94 6.312 20.5815 4.54063 19.351 3.01475C17.7379 1.01425 15.1485 0 11.6549 0V3.75C13.9453 3.75 15.5475 4.2885 16.4169 5.35038C17.0266 6.09513 17.2173 7.02513 17.2568 7.76225C12.9368 8.73287 9.70027 12.5982 9.70027 17.2062V24.76C9.70027 26.5438 8.88277 28.2425 7.51277 29.3037C5.18402 31.11 3.26914 33.4587 1.97414 36.0962C0.612892 38.8675 -0.049608 41.8512 0.00289198 44.9613C0.182892 55.5088 8.85402 64 19.3826 64C19.4614 64 19.5414 64 19.6214 63.9987C22.2639 63.9662 24.855 63.3925 27.2388 62.3338C26.1275 61.1038 25.0988 59.6775 24.17 58.07C22.0725 54.44 20.6489 50.0812 20.2639 46.1138Z" fill="#2FB0AB"/>
<path fill-rule="evenodd" clip-rule="evenodd" d="M62.4832 36.897C61.286 34.6745 59.4207 33.0884 57.0888 32.3098C53.2803 31.0384 48.8575 32.1284 45.5028 34.874C45.7399 32.2806 46.8577 29.1658 50.5498 27.6893L49.1574 24.2074C45.0473 25.851 42.5298 29.1379 41.8775 33.7126C41.8438 33.9491 41.816 34.1833 41.7937 34.414C38.5219 32.0101 34.3884 31.1121 30.8007 32.3099C28.4689 33.0885 26.6035 34.6746 25.4064 36.8971C24.1308 39.2654 23.6563 42.2448 23.9962 45.7526C24.6545 52.5458 28.8668 60.96 34.776 63.2821C35.7025 63.6463 36.8234 63.924 38.0883 63.924C39.8167 63.924 41.8128 63.4051 43.9447 61.8788C47.6365 64.5223 50.9208 64.1439 53.1132 63.2823C59.0225 60.96 63.2347 52.5459 63.893 45.7528C64.2332 42.2448 63.7587 39.2653 62.4832 36.897Z" fill="#75B547"/>
</svg>
