<svg width="64" height="59" viewBox="0 0 64 59" fill="none" xmlns="http://www.w3.org/2000/svg">
<path fill-rule="evenodd" clip-rule="evenodd" d="M16.982 6.84362C16.3365 7.87837 15.7571 8.94684 15.2444 10.0428C13.2463 9.36731 11.327 8.45978 9.53963 7.33566C13.3234 3.78023 17.865 1.29289 22.794 0.0253906C20.5403 1.98895 18.5795 4.2826 16.982 6.84362ZM38.1884 0.0421944C41.459 2.89797 44.1055 6.44058 45.9055 10.437L46.2651 10.079C47.6832 8.66677 49.3592 7.66477 51.1435 7.07104C47.4496 3.69372 42.9961 1.29041 38.1884 0.0421944ZM23.8206 11.4629H26.5501C26.9137 10.9776 27.3149 10.5149 27.7528 10.079C28.0289 9.80408 28.3153 9.54543 28.6099 9.30146V0.353002C25.1974 2.49343 22.3099 5.37945 20.1676 8.8139C19.7222 9.52788 19.3134 10.2604 18.94 11.0082C20.5465 11.3083 22.1814 11.4629 23.8206 11.4629ZM16.1506 27.6038V22.8349C16.1506 19.9955 16.6068 17.1928 17.4891 14.5247C19.566 14.9675 21.69 15.1972 23.8206 15.1972H24.6395C24.2691 16.3861 24.0764 17.6366 24.0764 18.9168C24.0764 22.185 25.3283 25.2612 27.605 27.6039H16.1506V27.6038ZM16.1506 31.3381V36.107C16.1506 38.9463 16.6068 41.749 17.4891 44.4173C19.566 43.9744 21.69 43.7448 23.8206 43.7448H28.6099V31.3381H16.1506ZM37.149 43.7446C39.2793 43.7446 41.4029 43.9742 43.4794 44.4168C43.563 44.1639 43.6429 43.9094 43.719 43.6533L32.3599 32.3421V43.7446H37.149ZM23.8206 47.4788H28.6099V58.5887C25.1974 56.4483 22.3099 53.5623 20.1676 50.1278C19.7222 49.4139 19.3135 48.6813 18.94 47.9335C20.5464 47.6334 22.1814 47.4788 23.8206 47.4788ZM32.3599 47.4788V58.588C36.5231 55.9778 39.8602 52.2871 42.0312 47.9339C40.4243 47.6335 38.7889 47.4788 37.149 47.4788H32.3599ZM32.3599 0.355118C35.0544 2.04807 37.4205 4.20804 39.3461 6.71878C37.0335 6.21155 34.604 6.36067 32.3599 7.16489V0.355118ZM12.4008 22.8349C12.4008 19.6545 12.9015 16.5141 13.8728 13.5202C11.429 12.6785 9.09138 11.5315 6.93363 10.1021C2.80213 15.0654 0.390375 21.1424 0 27.6038H12.4008V22.8349ZM12.4006 31.338V36.1069C12.4006 39.2873 12.9015 42.4276 13.8726 45.4215C11.429 46.2631 9.09125 47.4102 6.93363 48.8397C2.80213 43.8763 0.390375 37.7993 0 31.338H12.4006ZM16.9821 52.0981C16.3366 51.0634 15.7571 49.9949 15.2445 48.8989C13.2463 49.5743 11.327 50.482 9.53975 51.6061C13.3234 55.1615 17.8651 57.6488 22.7941 58.9165C20.5403 56.9528 18.5795 54.659 16.9821 52.0981ZM45.7261 48.8992C47.724 49.5746 49.6429 50.4821 51.43 51.6061C47.6459 55.1619 43.1036 57.6493 38.1739 58.9169C41.3594 56.1436 43.9345 52.7348 45.7261 48.8992ZM47.4487 44.251C47.3385 44.6442 47.2204 45.034 47.095 45.4209C49.5395 46.2626 51.8779 47.41 54.036 48.8397C58.2913 43.7278 60.7225 37.4348 60.9996 30.7572L47.4487 44.251Z" fill="#2FB0AB"/>
<path d="M63.9413 18.9169C63.9413 21.2578 63.0258 23.4586 61.3634 25.114L45.8838 40.5284L30.404 25.114C28.7417 23.4586 27.8262 21.2578 27.8262 18.9169C27.8262 16.5758 28.7417 14.375 30.404 12.7196C32.1199 11.011 34.3737 10.1567 36.6275 10.1567C38.8813 10.1567 41.1352 11.011 42.851 12.7196L45.8838 15.7396L48.9165 12.7196C52.3483 9.30248 57.932 9.30261 61.3635 12.7196C63.0258 14.375 63.9413 16.5758 63.9413 18.9169Z" fill="#75B547"/>
</svg>
