<svg width="16" height="32" viewBox="0 0 16 32" fill="none" xmlns="http://www.w3.org/2000/svg">
<path fill-rule="evenodd" clip-rule="evenodd" d="M13.3333 0V4H2.66667C1.19467 4 0 5.19467 0 6.66667V29.3333C0 30.8053 1.19467 32 2.66667 32H13.3333C14.8053 32 16 30.8053 16 29.3333V0H13.3333ZM5.33333 28H2.66667V26.6667H5.33333V28ZM2.66667 25.3333H5.33333V24H2.66667V25.3333ZM5.33333 22.6667H2.66667V21.3333H5.33333V22.6667ZM6.66667 28H9.33333V26.6667H6.66667V28ZM9.33333 25.3333H6.66667V24H9.33333V25.3333ZM6.66667 22.6667H9.33333V21.3333H6.66667V22.6667ZM13.3333 28H10.6667V26.6667H13.3333V28ZM10.6667 25.3333H13.3333V24H10.6667V25.3333ZM13.3333 22.6667H10.6667V21.3333H13.3333V22.6667ZM2.66667 18.6667H13.3333V8H2.66667V18.6667Z" fill="#2FB0AB"/>
</svg>
