<svg width="21" height="32" viewBox="0 0 21 32" fill="none" xmlns="http://www.w3.org/2000/svg">
<path fill-rule="evenodd" clip-rule="evenodd" d="M0 10.136C0 4.53733 4.99013 0 10.5 0C16.0112 0 21 4.53733 21 10.136C21 15.1874 17.2918 21.1228 12.1974 29.2768C11.6468 30.1581 11.08 31.0652 10.5 32C9.91997 31.0652 9.35321 30.1581 8.80263 29.2768C3.70822 21.1228 0 15.1874 0 10.136ZM6.5625 10.6667C6.5625 12.876 8.32519 14.6667 10.5 14.6667C12.6748 14.6667 14.4375 12.876 14.4375 10.6667C14.4375 8.45733 12.6748 6.66667 10.5 6.66667C8.32519 6.66667 6.5625 8.45733 6.5625 10.6667Z" fill="#2FB0AB"/>
</svg>
