<svg width="64" height="64" viewBox="0 0 64 64" fill="none" xmlns="http://www.w3.org/2000/svg">
<path fill-rule="evenodd" clip-rule="evenodd" d="M61.0625 3.75C59.5251 3.75 58.25 5.02488 58.25 6.5625C58.25 7.7305 58.25 16.449 58.25 16.875C58.25 17.9249 57.4251 18.75 56.375 18.75C55.3249 18.75 54.5 17.9249 54.5 16.875C54.5 15.5051 54.5 3.26225 54.5 2.8125C54.5 1.27488 53.2249 0 51.6875 0C50.1501 0 48.875 1.27488 48.875 2.8125C48.875 4.43825 48.875 16.2757 48.875 16.875C48.875 17.9249 48.0501 18.75 47 18.75C45.9499 18.75 45.125 17.9249 45.125 16.875C45.125 15.2336 45.125 6.89937 45.125 6.5625C45.125 5.02488 43.8499 3.75 42.3125 3.75C40.7751 3.75 39.5 5.02488 39.5 6.5625C39.5 7.67887 39.5 20.0264 39.5 20.625C39.5 21.6749 38.6751 22.5 37.625 22.5H33.875L45.125 34V35.875H60.125V32.75C62.525 30.0874 64 26.3999 64 22.8374C64 21.6724 64 7.41787 64 6.5625C64 5.02488 62.5999 3.75 61.0625 3.75Z" fill="#2FB0AB"/>
<path fill-rule="evenodd" clip-rule="evenodd" d="M32.75 3.75C30.0875 1.35 26.5249 0 22.9624 0C21.7974 0 7.54262 0 6.6875 0C5.14988 0 3.875 1.27513 3.875 2.8125C3.875 4.34987 5.14988 5.6125 6.6875 5.6125C7.8555 5.6125 16.574 5.6125 17 5.6125C18.0499 5.6125 18.875 6.44987 18.875 7.5C18.875 8.55013 18.0499 9.375 17 9.375C15.6304 9.375 3.38725 9.375 2.9375 9.375C1.39988 9.375 0 10.6501 0 12.1875C0 13.7249 1.39988 14.9875 2.9375 14.9875C4.56325 14.9875 16.4007 14.9875 17 14.9875C18.0499 14.9875 18.875 15.8249 18.875 16.875C18.875 17.9251 18.0499 18.75 17 18.75C15.3589 18.75 7.02413 18.75 6.6875 18.75C5.14988 18.75 3.875 20.0251 3.875 21.5625C3.875 23.0999 5.14988 24.375 6.6875 24.375C7.80387 24.375 20.1511 24.375 20.75 24.375C21.7999 24.375 22.625 25.1999 22.625 26.25V30L33.875 18.75H35.75V3.75H32.75Z" fill="#75B547"/>
<path fill-rule="evenodd" clip-rule="evenodd" d="M18.875 30V28.125H3.875V31.25C1.475 33.9125 0 37.6001 0 41.1626C0 42.3276 0 56.5825 0 57.4375C0 58.9751 1.40013 60.25 2.9375 60.25C4.47487 60.25 5.75 58.9751 5.75 57.4375C5.75 56.2695 5.75 47.551 5.75 47.125C5.75 46.0751 6.57487 45.25 7.625 45.25C8.67513 45.25 9.5 46.0751 9.5 47.125C9.5 48.4946 9.5 60.738 9.5 61.1875C9.5 62.7251 10.7751 64 12.3125 64C13.8499 64 15.125 62.7251 15.125 61.1875C15.125 59.5615 15.125 47.7244 15.125 47.125C15.125 46.0751 15.9499 45.25 17 45.25C18.0501 45.25 18.875 46.0751 18.875 47.125C18.875 48.7661 18.875 57.1009 18.875 57.4375C18.875 58.9751 20.1501 60.25 21.6875 60.25C23.2249 60.25 24.5 58.9751 24.5 57.4375C24.5 56.3211 24.5 43.9739 24.5 43.375C24.5 42.3251 25.3249 41.5 26.375 41.5H30.125L18.875 30Z" fill="#2FB0AB"/>
<path fill-rule="evenodd" clip-rule="evenodd" d="M61.1875 49C59.561 49 47.6012 49 47 49C45.9501 49 45.125 48.1751 45.125 47.125C45.125 46.0749 45.9501 45.2375 47 45.2375C48.6411 45.2375 56.9759 45.2375 57.3125 45.2375C58.8501 45.2375 60.125 43.9749 60.125 42.4375C60.125 40.9001 58.8501 39.625 57.3125 39.625C56.1961 39.625 43.8489 39.625 43.25 39.625C42.2001 39.625 41.375 38.8001 41.375 37.75V34L30.125 45.25H28.25V60.25H31.25C33.9126 62.65 37.4751 64 41.0376 64C42.2026 64 56.4574 64 57.3125 64C58.8501 64 60.125 62.7249 60.125 61.1875C60.125 59.6501 58.8501 58.375 57.3125 58.375C56.1445 58.375 47.426 58.375 47 58.375C45.9501 58.375 45.125 57.5501 45.125 56.5C45.125 55.4499 45.9501 54.6125 47 54.6125C48.3701 54.6125 60.7374 54.6125 61.1875 54.6125C62.7251 54.6125 64 53.3499 64 51.8125C64 50.2751 62.7251 49 61.1875 49Z" fill="#75B547"/>
</svg>
