<svg width="16" height="15" viewBox="0 0 16 15" fill="none" xmlns="http://www.w3.org/2000/svg">
<path d="M0 5.30699V5.12575C0 2.94137 1.57875 1.07825 3.73125 0.719495C5.12813 0.482308 6.60625 0.946682 7.625 1.967L8 2.34137L8.34688 1.967C9.39375 0.946682 10.8438 0.482308 12.2688 0.719495C14.4219 1.07825 16 2.94137 16 5.12575V5.30699C16 6.60387 15.4625 7.8445 14.5125 8.72887L8.86563 14.0007C8.63125 14.2195 8.32187 14.3414 8 14.3414C7.67812 14.3414 7.36875 14.2195 7.13438 14.0007L1.48719 8.72887C0.538437 7.8445 9.375e-06 6.60387 9.375e-06 5.30699H0Z" fill="#FF0000"/>
</svg>
