<svg width="59" height="64" viewBox="0 0 59 64" fill="none" xmlns="http://www.w3.org/2000/svg">
<path fill-rule="evenodd" clip-rule="evenodd" d="M55.1798 47.0382C53.4117 44.6423 50.2125 41.1851 50.2125 41.1851C50.2125 41.1851 47.0133 44.6423 45.2452 47.0383C42.6748 50.521 41.4253 53.196 41.4253 55.2157C41.4253 60.0594 45.3672 64.0001 50.2125 64.0001C55.0578 64.0001 58.9998 60.0594 58.9998 55.2157C58.9998 53.196 57.7502 50.521 55.1798 47.0382Z" fill="#2FB0AB"/>
<path fill-rule="evenodd" clip-rule="evenodd" d="M39.483 18.7639L38.8476 18.7706C38.0291 18.7791 37.2594 18.4674 36.6781 17.8925C36.0968 17.3175 35.7767 16.5507 35.7767 15.7332V9.41177H30.1277V5.64706H39.5426V1.88235H30.1277V0H26.3618V1.88235H16.9469V5.64706H26.3618V9.41177H20.7128V15.2676C20.7128 17.2284 19.1172 18.8235 17.1558 18.8235H12.3926C12.4965 19.3771 12.5533 19.9469 12.5533 20.5301V30.2935C12.5533 30.8766 12.4964 31.4465 12.3926 32H39.5426C41.6192 32 43.3086 33.6888 43.3086 35.7647V37.6471H56.4894V35.7647C56.4894 26.3905 48.8604 18.7639 39.483 18.7639Z" fill="#75B547"/>
<path fill-rule="evenodd" clip-rule="evenodd" d="M3.31417 15.0588H0V35.7647H3.31417C6.33195 35.7647 8.78723 33.3103 8.78723 30.2935V20.5301C8.78723 17.5133 6.33195 15.0588 3.31417 15.0588Z" fill="#2FB0AB"/>
</svg>
