<svg width="400" height="270" viewBox="0 0 400 270" fill="none" xmlns="http://www.w3.org/2000/svg">
<mask id="mask0_33_1062" style="mask-type:luminance" maskUnits="userSpaceOnUse" x="0" y="0" width="400" height="400">
<circle cx="200" cy="200" r="200" fill="white"/>
</mask>
<g mask="url(#mask0_33_1062)">
<path d="M100.018 -207.501L100.725 -208.207L100.019 -208.915L99.3109 -208.208L100.018 -207.501ZM100.724 -206.793L101.432 -207.5L100.724 -206.793ZM98.6024 -206.087L97.8958 -206.795L97.1882 -206.088L97.8948 -205.381L98.6024 -206.087ZM99.309 -205.38L100.017 -206.086L100.017 -206.086L99.309 -205.38ZM623.275 319.293L623.983 318.587L623.275 319.293ZM623.982 320.001L623.274 320.708L623.981 321.415L624.688 320.709L623.982 320.001ZM625.397 318.588L626.104 319.295L626.811 318.589L626.105 317.881L625.397 318.588ZM624.69 317.88L623.983 318.587L624.69 317.88ZM83.047 -190.53L83.7546 -191.237L83.0479 -191.944L82.3404 -191.238L83.047 -190.53ZM83.7536 -189.822L84.4612 -190.529L84.4612 -190.529L83.7536 -189.822ZM81.6318 -189.117L80.9252 -189.824L80.2176 -189.118L80.9242 -188.41L81.6318 -189.117ZM82.3385 -188.409L81.6309 -187.703L81.6309 -187.703L82.3385 -188.409ZM606.305 336.264L605.597 336.971L606.305 336.264ZM607.011 336.972L606.304 337.678L607.01 338.386L607.718 337.679L607.011 336.972ZM608.426 335.558L609.133 336.266L609.841 335.559L609.134 334.852L608.426 335.558ZM607.72 334.851L608.427 334.144L607.72 334.851ZM66.7831 -172.852L66.0755 -172.145L66.0755 -172.145L66.7831 -172.852ZM66.0764 -173.559L66.784 -174.266L66.0774 -174.974L65.3698 -174.267L66.0764 -173.559ZM590.749 351.821L591.457 351.115L590.749 351.821ZM591.456 352.529L592.162 353.236L592.87 352.53L592.163 351.822L591.456 352.529ZM590.041 353.942L589.333 354.649L590.04 355.356L590.747 354.65L590.041 353.942ZM589.334 353.235L590.042 352.528L589.334 353.235ZM65.3679 -171.439L64.6603 -170.732L64.6603 -170.732L65.3679 -171.439ZM64.6613 -172.146L63.9546 -172.854L63.2471 -172.147L63.9537 -171.44L64.6613 -172.146ZM49.1059 -156.589L49.8134 -157.296L49.1068 -158.003L48.3992 -157.296L49.1059 -156.589ZM49.8125 -155.881L50.5201 -156.588L50.5201 -156.588L49.8125 -155.881ZM47.6907 -155.176L46.9841 -155.883L46.2765 -155.177L46.9831 -154.469L47.6907 -155.176ZM48.3973 -154.468L49.1049 -155.175L49.1049 -155.175L48.3973 -154.468ZM572.363 370.205L571.656 370.912L572.363 370.205ZM573.07 370.913L572.362 371.619L573.069 372.327L573.777 371.62L573.07 370.913ZM574.485 369.499L575.192 370.207L575.899 369.5L575.193 368.793L574.485 369.499ZM573.779 368.792L573.071 369.499L573.779 368.792ZM32.8419 -138.911L33.5495 -139.617L33.5495 -139.617L32.8419 -138.911ZM32.1353 -139.618L32.8429 -140.325L32.1363 -141.033L31.4287 -140.326L32.1353 -139.618ZM556.808 385.762L556.1 386.469L556.808 385.762ZM557.515 386.47L558.221 387.178L558.929 386.471L558.222 385.763L557.515 386.47ZM556.1 387.883L555.392 388.59L556.099 389.298L556.806 388.591L556.1 387.883ZM555.393 387.176L554.685 387.882L555.393 387.176ZM31.4268 -137.498L32.1344 -138.204L32.1344 -138.204L31.4268 -137.498ZM30.7201 -138.205L30.0135 -138.913L29.3059 -138.206L30.0126 -137.498L30.7201 -138.205ZM15.1647 -122.648L15.8723 -123.354L15.1657 -124.062L14.4581 -123.355L15.1647 -122.648ZM15.8714 -121.94L16.579 -122.647L16.579 -122.647L15.8714 -121.94ZM13.7496 -121.235L13.0429 -121.942L12.3354 -121.235L13.042 -120.528L13.7496 -121.235ZM14.4562 -120.527L15.1638 -121.234L15.1638 -121.234L14.4562 -120.527ZM538.422 404.146L537.715 404.853L538.422 404.146ZM539.129 404.854L538.421 405.56L539.128 406.268L539.836 405.561L539.129 404.854ZM540.544 403.441L541.251 404.148L541.958 403.442L541.252 402.734L540.544 403.441ZM539.837 402.733L539.13 403.44L539.837 402.733ZM-1.09919 -104.97L-0.391604 -105.676L-0.391606 -105.676L-1.09919 -104.97ZM-1.80582 -105.677L-1.09824 -106.384L-1.80487 -107.091L-2.51245 -106.385L-1.80582 -105.677ZM522.867 419.704L522.159 420.41L522.867 419.704ZM523.574 420.411L524.28 421.119L524.988 420.412L524.281 419.705L523.574 420.411ZM522.158 421.824L521.451 422.531L522.157 423.239L522.865 422.532L522.158 421.824ZM521.452 421.117L520.744 421.823L521.452 421.117ZM-2.51435 -103.556L-1.80677 -104.263L-1.80677 -104.263L-2.51435 -103.556ZM-3.22099 -104.264L-3.92762 -104.972L-4.6352 -104.265L-3.92857 -103.557L-3.22099 -104.264ZM-18.7764 -88.7067L-18.0688 -89.4133L-18.7754 -90.1209L-19.483 -89.4142L-18.7764 -88.7067ZM-18.0698 -87.9991L-17.3622 -88.7057L-17.3622 -88.7057L-18.0698 -87.9991ZM-20.1915 -87.2934L-20.8982 -88.001L-21.6058 -87.2944L-20.8991 -86.5868L-20.1915 -87.2934ZM-19.4849 -86.5858L-18.7773 -87.2925L-18.7773 -87.2925L-19.4849 -86.5858ZM504.481 438.087L503.774 438.794L504.481 438.087ZM505.188 438.795L504.48 439.502L505.187 440.209L505.894 439.503L505.188 438.795ZM506.603 437.382L507.31 438.089L508.017 437.383L507.311 436.675L506.603 437.382ZM505.896 436.674L505.189 437.381L505.896 436.674ZM-35.0403 -71.0285L-34.3327 -71.7352L-34.3327 -71.7352L-35.0403 -71.0285ZM-35.7469 -71.7361L-35.0394 -72.4427L-35.746 -73.1503L-36.4536 -72.4437L-35.7469 -71.7361ZM488.926 453.645L488.218 454.351L488.926 453.645ZM489.632 454.352L490.339 455.06L491.047 454.353L490.34 453.646L489.632 454.352ZM488.217 455.766L487.51 456.472L488.216 457.18L488.924 456.473L488.217 455.766ZM487.511 455.058L486.803 455.765L487.511 455.058ZM-36.4555 -69.6153L-35.7479 -70.3219L-35.7479 -70.3219L-36.4555 -69.6153ZM-37.1621 -70.3228L-37.8687 -71.0304L-38.5763 -70.3238L-37.8697 -69.6162L-37.1621 -70.3228ZM-52.7175 -54.7655L-52.0099 -55.4722L-52.7166 -56.1798L-53.4241 -55.4731L-52.7175 -54.7655ZM-52.0109 -54.058L-51.3033 -54.7646L-51.3033 -54.7646L-52.0109 -54.058ZM-54.1327 -53.3523L-54.8393 -54.0599L-55.5469 -53.3532L-54.8403 -52.6456L-54.1327 -53.3523ZM-53.426 -52.6447L-52.7185 -53.3513L-52.7185 -53.3513L-53.426 -52.6447ZM470.54 472.029L469.832 472.735L470.54 472.029ZM471.247 472.736L470.539 473.443L471.246 474.15L471.953 473.444L471.247 472.736ZM472.662 471.323L473.369 472.03L474.076 471.324L473.369 470.616L472.662 471.323ZM471.955 470.615L471.248 471.322L471.955 470.615ZM-68.9814 -37.0874L-68.2739 -37.794L-68.2739 -37.794L-68.9814 -37.0874ZM-69.6881 -37.795L-68.9805 -38.5016L-69.6871 -39.2092L-70.3947 -38.5026L-69.6881 -37.795ZM454.985 487.586L454.277 488.292L454.985 487.586ZM455.691 488.293L456.398 489.001L457.106 488.294L456.399 487.587L455.691 488.293ZM454.276 489.707L453.569 490.413L454.275 491.121L454.983 490.414L454.276 489.707ZM453.57 488.999L452.862 489.706L453.57 488.999ZM-70.3966 -35.6741L-69.689 -36.3808L-69.689 -36.3808L-70.3966 -35.6741ZM-71.1032 -36.3817L-71.8099 -37.0893L-72.5175 -36.3827L-71.8108 -35.6751L-71.1032 -36.3817ZM-86.6586 -20.8244L-85.9511 -21.531L-86.6577 -22.2386L-87.3653 -21.532L-86.6586 -20.8244ZM-85.952 -20.1168L-85.2444 -20.8235L-85.2444 -20.8235L-85.952 -20.1168ZM-88.0738 -19.4112L-88.7804 -20.1187L-89.488 -19.4121L-88.7814 -18.7045L-88.0738 -19.4112ZM-87.3672 -18.7036L-86.6596 -19.4102L-86.6596 -19.4102L-87.3672 -18.7036ZM436.599 505.97L435.891 506.676L436.599 505.97ZM437.306 506.677L436.598 507.384L437.305 508.091L438.012 507.385L437.306 506.677ZM438.721 505.264L439.427 505.972L440.135 505.265L439.428 504.557L438.721 505.264ZM438.014 504.556L437.307 505.263L438.014 504.556ZM-102.923 -3.14627L-102.215 -3.8529L-102.215 -3.8529L-102.923 -3.14627ZM-103.629 -3.85385L-102.922 -4.56049L-103.628 -5.26806L-104.336 -4.56143L-103.629 -3.85385ZM421.044 521.527L420.336 522.234L421.044 521.527ZM421.75 522.235L422.457 522.942L423.164 522.235L422.458 521.528L421.75 522.235ZM420.335 523.648L419.627 524.354L420.334 525.062L421.042 524.355L420.335 523.648ZM419.628 522.94L418.921 523.647L419.628 522.94ZM-104.338 -1.73301L-103.63 -2.43964L-103.63 -2.43964L-104.338 -1.73301ZM-105.044 -2.44059L-105.751 -3.14817L-106.459 -2.44154L-105.752 -1.73396L-105.044 -2.44059ZM-120.6 13.1167L-119.892 12.4101L-120.599 11.7025L-121.306 12.4091L-120.6 13.1167ZM-119.893 13.8243L-119.186 13.1177L-119.186 13.1177L-119.893 13.8243ZM-122.015 14.53L-122.722 13.8224L-123.429 14.529L-122.723 15.2366L-122.015 14.53ZM-121.308 15.2376L-120.601 14.5309L-120.601 14.5309L-121.308 15.2376ZM402.658 539.911L401.95 540.617L402.658 539.911ZM403.364 540.618L402.657 541.325L403.364 542.033L404.071 541.326L403.364 540.618ZM404.78 539.205L405.486 539.913L406.194 539.206L405.487 538.498L404.78 539.205ZM404.073 538.498L403.365 539.204L404.073 538.498ZM-136.864 30.7949L-136.156 30.0882L-136.156 30.0882L-136.864 30.7949ZM-137.57 30.0873L-136.863 29.3806L-137.569 28.6731L-138.277 29.3797L-137.57 30.0873ZM387.102 555.468L386.395 556.175L387.102 555.468ZM387.809 556.176L388.516 556.883L389.223 556.177L388.517 555.469L387.809 556.176ZM386.394 557.589L385.686 558.296L386.393 559.003L387.101 558.296L386.394 557.589ZM385.687 556.881L384.98 557.588L385.687 556.881ZM-138.279 32.2081L-137.571 31.5015L-137.571 31.5015L-138.279 32.2081ZM-138.985 31.5005L-139.692 30.793L-140.4 31.4996L-139.693 32.2072L-138.985 31.5005ZM-154.541 47.0578L-153.833 46.3512L-154.54 45.6436L-155.248 46.3503L-154.541 47.0578ZM-153.834 47.7654L-153.127 47.0588L-153.127 47.0588L-153.834 47.7654ZM-155.956 48.4711L-156.663 47.7635L-157.37 48.4701L-156.664 49.1777L-155.956 48.4711ZM-155.249 49.1787L-154.542 48.472L-154.542 48.472L-155.249 49.1787ZM368.717 573.852L368.009 574.559L368.717 573.852ZM369.423 574.559L368.716 575.266L369.422 575.974L370.13 575.267L369.423 574.559ZM370.838 573.146L371.545 573.854L372.253 573.147L371.546 572.44L370.838 573.146ZM370.132 572.439L369.424 573.145L370.132 572.439ZM-170.805 64.736L-170.097 64.0293L-170.097 64.0293L-170.805 64.736ZM-171.511 64.0284L-170.804 63.3218L-171.51 62.6142L-172.218 63.3208L-171.511 64.0284ZM353.161 589.409L352.454 590.116L353.161 589.409ZM353.868 590.117L354.575 590.824L355.282 590.118L354.576 589.41L353.868 590.117ZM352.453 591.53L351.745 592.237L352.452 592.944L353.159 592.238L352.453 591.53ZM351.746 590.822L351.039 591.529L351.746 590.822ZM-172.22 66.1492L-171.512 65.4426L-171.512 65.4426L-172.22 66.1492ZM-172.927 65.4417L-173.633 64.7341L-174.341 65.4407L-173.634 66.1483L-172.927 65.4417ZM-188.482 80.999L-187.774 80.2923L-188.481 79.5847L-189.189 80.2914L-188.482 80.999ZM-187.775 81.7065L-187.068 80.9999L-187.068 80.9999L-187.775 81.7065ZM-189.897 82.4122L-190.604 81.7046L-191.311 82.4113L-190.605 83.1189L-189.897 82.4122ZM-189.191 83.1198L-188.483 82.4132L-188.483 82.4132L-189.191 83.1198ZM334.776 607.793L334.068 608.5L334.776 607.793ZM335.482 608.501L334.775 609.207L335.481 609.915L336.189 609.208L335.482 608.501ZM336.897 607.087L337.604 607.795L338.312 607.088L337.605 606.381L336.897 607.087ZM336.191 606.38L335.483 607.086L336.191 606.38ZM99.31 -206.794L100.017 -206.086L101.432 -207.5L100.725 -208.207L99.31 -206.794ZM99.309 -205.38L100.724 -206.793L99.3109 -208.208L97.8958 -206.795L99.309 -205.38ZM100.017 -206.086L99.31 -206.794L97.8948 -205.381L98.6014 -204.673L100.017 -206.086ZM623.983 318.587L100.017 -206.086L98.6014 -204.673L622.568 320L623.983 318.587ZM624.689 319.294L623.983 318.587L622.568 320L623.274 320.708L624.689 319.294ZM624.69 317.88L623.275 319.293L624.688 320.709L626.104 319.295L624.69 317.88ZM623.983 318.587L624.689 319.294L626.105 317.881L625.398 317.174L623.983 318.587ZM100.017 -206.086L623.983 318.587L625.398 317.174L101.432 -207.5L100.017 -206.086ZM82.3394 -189.823L83.046 -189.116L84.4612 -190.529L83.7546 -191.237L82.3394 -189.823ZM82.3385 -188.409L83.7536 -189.822L82.3404 -191.238L80.9252 -189.824L82.3385 -188.409ZM83.046 -189.116L82.3394 -189.823L80.9242 -188.41L81.6309 -187.703L83.046 -189.116ZM607.012 335.557L83.046 -189.116L81.6309 -187.703L605.597 336.971L607.012 335.557ZM607.719 336.265L607.012 335.557L605.597 336.971L606.304 337.678L607.719 336.265ZM607.72 334.851L606.305 336.264L607.718 337.679L609.133 336.266L607.72 334.851ZM607.012 335.557L607.719 336.265L609.134 334.852L608.427 334.144L607.012 335.557ZM83.046 -189.116L607.012 335.557L608.427 334.144L84.4612 -190.529L83.046 -189.116ZM67.4906 -173.559L66.784 -174.266L65.3688 -172.853L66.0755 -172.145L67.4906 -173.559ZM591.457 351.115L67.4906 -173.559L66.0755 -172.145L590.042 352.528L591.457 351.115ZM592.163 351.822L591.457 351.115L590.042 352.528L590.748 353.236L592.163 351.822ZM590.747 354.65L592.162 353.236L590.749 351.821L589.334 353.235L590.747 354.65ZM588.626 353.941L589.333 354.649L590.748 353.236L590.042 352.528L588.626 353.941ZM64.6603 -170.732L588.626 353.941L590.042 352.528L66.0755 -172.145L64.6603 -170.732ZM63.9537 -171.44L64.6603 -170.732L66.0755 -172.145L65.3688 -172.853L63.9537 -171.44ZM65.3698 -174.267L63.9546 -172.854L65.3679 -171.439L66.7831 -172.852L65.3698 -174.267ZM48.3983 -155.882L49.1049 -155.175L50.5201 -156.588L49.8134 -157.296L48.3983 -155.882ZM48.3973 -154.468L49.8125 -155.881L48.3992 -157.296L46.9841 -155.883L48.3973 -154.468ZM49.1049 -155.175L48.3983 -155.882L46.9831 -154.469L47.6898 -153.761L49.1049 -155.175ZM573.071 369.499L49.1049 -155.175L47.6897 -153.761L571.656 370.912L573.071 369.499ZM573.778 370.206L573.071 369.499L571.656 370.912L572.362 371.619L573.778 370.206ZM573.779 368.792L572.363 370.205L573.777 371.62L575.192 370.207L573.779 368.792ZM573.071 369.499L573.778 370.206L575.193 368.793L574.486 368.085L573.071 369.499ZM49.1049 -155.175L573.071 369.499L574.486 368.085L50.5201 -156.588L49.1049 -155.175ZM33.5495 -139.617L32.8429 -140.325L31.4277 -138.912L32.1344 -138.204L33.5495 -139.617ZM557.516 385.056L33.5495 -139.617L32.1344 -138.204L556.1 386.469L557.516 385.056ZM558.222 385.763L557.516 385.056L556.1 386.469L556.807 387.177L558.222 385.763ZM556.806 388.591L558.221 387.178L556.808 385.762L555.393 387.176L556.806 388.591ZM554.685 387.882L555.392 388.59L556.807 387.177L556.1 386.469L554.685 387.882ZM30.7192 -136.791L554.685 387.882L556.1 386.469L32.1344 -138.204L30.7192 -136.791ZM30.0126 -137.498L30.7192 -136.791L32.1344 -138.204L31.4277 -138.912L30.0126 -137.498ZM31.4287 -140.326L30.0135 -138.913L31.4268 -137.498L32.8419 -138.911L31.4287 -140.326ZM14.4572 -121.941L15.1638 -121.234L16.579 -122.647L15.8723 -123.354L14.4572 -121.941ZM14.4562 -120.527L15.8714 -121.94L14.4581 -123.355L13.0429 -121.942L14.4562 -120.527ZM15.1638 -121.234L14.4572 -121.941L13.042 -120.528L13.7486 -119.82L15.1638 -121.234ZM539.13 403.44L15.1638 -121.234L13.7486 -119.82L537.715 404.853L539.13 403.44ZM539.837 404.147L539.13 403.44L537.715 404.853L538.421 405.56L539.837 404.147ZM539.837 402.733L538.422 404.146L539.836 405.561L541.251 404.148L539.837 402.733ZM539.13 403.44L539.837 404.147L541.252 402.734L540.545 402.026L539.13 403.44ZM15.1638 -121.234L539.13 403.44L540.545 402.026L16.579 -122.647L15.1638 -121.234ZM-0.391606 -105.676L-1.09824 -106.384L-2.5134 -104.971L-1.80677 -104.263L-0.391606 -105.676ZM523.575 418.997L-0.391604 -105.676L-1.80677 -104.263L522.159 420.41L523.575 418.997ZM524.281 419.705L523.575 418.997L522.159 420.41L522.866 421.118L524.281 419.705ZM522.865 422.532L524.28 421.119L522.867 419.704L521.452 421.117L522.865 422.532ZM520.744 421.823L521.451 422.531L522.866 421.118L522.159 420.41L520.744 421.823ZM-3.22194 -102.85L520.744 421.823L522.159 420.41L-1.80677 -104.263L-3.22194 -102.85ZM-3.92857 -103.557L-3.22194 -102.85L-1.80677 -104.263L-2.51341 -104.971L-3.92857 -103.557ZM-2.51245 -106.385L-3.92762 -104.972L-2.51435 -103.556L-1.09919 -104.97L-2.51245 -106.385ZM-19.484 -88L-18.7773 -87.2925L-17.3622 -88.7057L-18.0688 -89.4133L-19.484 -88ZM-19.4849 -86.5858L-18.0698 -87.9991L-19.483 -89.4142L-20.8982 -88.001L-19.4849 -86.5858ZM-18.7773 -87.2925L-19.484 -88L-20.8991 -86.5868L-20.1925 -85.8792L-18.7773 -87.2925ZM505.189 437.381L-18.7773 -87.2925L-20.1925 -85.8792L503.774 438.794L505.189 437.381ZM505.895 438.088L505.189 437.381L503.774 438.794L504.48 439.502L505.895 438.088ZM505.896 436.674L504.481 438.087L505.894 439.503L507.31 438.089L505.896 436.674ZM505.189 437.381L505.895 438.088L507.311 436.675L506.604 435.968L505.189 437.381ZM-18.7773 -87.2925L505.189 437.381L506.604 435.968L-17.3622 -88.7057L-18.7773 -87.2925ZM-34.3327 -71.7352L-35.0394 -72.4427L-36.4545 -71.0295L-35.7479 -70.3219L-34.3327 -71.7352ZM489.633 452.938L-34.3327 -71.7352L-35.7479 -70.3219L488.218 454.351L489.633 452.938ZM490.34 453.646L489.633 452.938L488.218 454.351L488.925 455.059L490.34 453.646ZM488.924 456.473L490.339 455.06L488.926 453.645L487.511 455.058L488.924 456.473ZM486.803 455.765L487.51 456.472L488.925 455.059L488.218 454.351L486.803 455.765ZM-37.1631 -68.9086L486.803 455.765L488.218 454.351L-35.7479 -70.3219L-37.1631 -68.9086ZM-37.8697 -69.6162L-37.1631 -68.9086L-35.7479 -70.3219L-36.4545 -71.0295L-37.8697 -69.6162ZM-36.4536 -72.4437L-37.8687 -71.0304L-36.4555 -69.6153L-35.0403 -71.0285L-36.4536 -72.4437ZM-53.4251 -54.0589L-52.7185 -53.3513L-51.3033 -54.7646L-52.0099 -55.4722L-53.4251 -54.0589ZM-53.426 -52.6447L-52.0109 -54.058L-53.4241 -55.4731L-54.8393 -54.0599L-53.426 -52.6447ZM-52.7185 -53.3513L-53.4251 -54.0589L-54.8403 -52.6456L-54.1336 -51.9381L-52.7185 -53.3513ZM471.248 471.322L-52.7185 -53.3513L-54.1336 -51.9381L469.832 472.735L471.248 471.322ZM471.954 472.029L471.248 471.322L469.832 472.735L470.539 473.443L471.954 472.029ZM471.955 470.615L470.54 472.029L471.953 473.444L473.369 472.03L471.955 470.615ZM471.248 471.322L471.954 472.029L473.369 470.616L472.663 469.909L471.248 471.322ZM-52.7185 -53.3513L471.248 471.322L472.663 469.909L-51.3033 -54.7646L-52.7185 -53.3513ZM-68.2739 -37.794L-68.9805 -38.5016L-70.3957 -37.0883L-69.689 -36.3808L-68.2739 -37.794ZM455.692 486.879L-68.2739 -37.794L-69.689 -36.3808L454.277 488.292L455.692 486.879ZM456.399 487.587L455.692 486.879L454.277 488.292L454.984 489L456.399 487.587ZM454.983 490.414L456.398 489.001L454.985 487.586L453.57 488.999L454.983 490.414ZM452.862 489.706L453.569 490.413L454.984 489L454.277 488.292L452.862 489.706ZM-71.1042 -34.9675L452.862 489.706L454.277 488.292L-69.689 -36.3808L-71.1042 -34.9675ZM-71.8108 -35.6751L-71.1042 -34.9675L-69.689 -36.3808L-70.3957 -37.0884L-71.8108 -35.6751ZM-70.3947 -38.5026L-71.8099 -37.0893L-70.3966 -35.6741L-68.9814 -37.0874L-70.3947 -38.5026ZM-87.3662 -20.1178L-86.6596 -19.4102L-85.2444 -20.8235L-85.9511 -21.531L-87.3662 -20.1178ZM-87.3672 -18.7036L-85.952 -20.1168L-87.3653 -21.532L-88.7804 -20.1187L-87.3672 -18.7036ZM-86.6596 -19.4102L-87.3662 -20.1178L-88.7814 -18.7045L-88.0747 -17.9969L-86.6596 -19.4102ZM437.307 505.263L-86.6596 -19.4102L-88.0748 -17.9969L435.891 506.676L437.307 505.263ZM438.013 505.971L437.307 505.263L435.891 506.676L436.598 507.384L438.013 505.971ZM438.014 504.556L436.599 505.97L438.012 507.385L439.427 505.972L438.014 504.556ZM437.307 505.263L438.013 505.971L439.428 504.557L438.722 503.85L437.307 505.263ZM-86.6596 -19.4102L437.307 505.263L438.722 503.85L-85.2444 -20.8235L-86.6596 -19.4102ZM-102.215 -3.8529L-102.922 -4.56049L-104.337 -3.14722L-103.63 -2.43964L-102.215 -3.8529ZM421.751 520.82L-102.215 -3.8529L-103.63 -2.43964L420.336 522.234L421.751 520.82ZM422.458 521.528L421.751 520.82L420.336 522.234L421.043 522.941L422.458 521.528ZM421.042 524.355L422.457 522.942L421.044 521.527L419.628 522.94L421.042 524.355ZM418.921 523.647L419.627 524.354L421.043 522.941L420.336 522.234L418.921 523.647ZM-105.045 -1.02638L418.921 523.647L420.336 522.234L-103.63 -2.43964L-105.045 -1.02638ZM-105.752 -1.73396L-105.045 -1.02638L-103.63 -2.43964L-104.337 -3.14723L-105.752 -1.73396ZM-104.336 -4.56143L-105.751 -3.14817L-104.338 -1.73301L-102.923 -3.14627L-104.336 -4.56143ZM-121.307 13.8233L-120.601 14.5309L-119.186 13.1177L-119.892 12.4101L-121.307 13.8233ZM-121.308 15.2376L-119.893 13.8243L-121.306 12.4091L-122.722 13.8224L-121.308 15.2376ZM-120.601 14.5309L-121.307 13.8233L-122.723 15.2366L-122.016 15.9442L-120.601 14.5309ZM403.365 539.204L-120.601 14.5309L-122.016 15.9442L401.95 540.617L403.365 539.204ZM404.072 539.912L403.365 539.204L401.95 540.617L402.657 541.325L404.072 539.912ZM404.073 538.498L402.658 539.911L404.071 541.326L405.486 539.913L404.073 538.498ZM403.365 539.204L404.072 539.912L405.487 538.498L404.781 537.791L403.365 539.204ZM-120.601 14.5309L403.365 539.204L404.781 537.791L-119.186 13.1177L-120.601 14.5309ZM-136.156 30.0882L-136.863 29.3806L-138.278 30.7939L-137.571 31.5015L-136.156 30.0882ZM387.81 554.761L-136.156 30.0882L-137.571 31.5015L386.395 556.175L387.81 554.761ZM388.517 555.469L387.81 554.761L386.395 556.175L387.101 556.882L388.517 555.469ZM387.101 558.296L388.516 556.883L387.102 555.468L385.687 556.881L387.101 558.296ZM384.98 557.588L385.686 558.296L387.101 556.882L386.395 556.175L384.98 557.588ZM-138.986 32.9147L384.98 557.588L386.395 556.175L-137.571 31.5015L-138.986 32.9147ZM-139.693 32.2072L-138.986 32.9147L-137.571 31.5015L-138.278 30.7939L-139.693 32.2072ZM-138.277 29.3797L-139.692 30.793L-138.279 32.2081L-136.864 30.7949L-138.277 29.3797ZM-155.248 47.7645L-154.542 48.472L-153.127 47.0588L-153.833 46.3512L-155.248 47.7645ZM-155.249 49.1787L-153.834 47.7654L-155.248 46.3503L-156.663 47.7635L-155.249 49.1787ZM-154.542 48.472L-155.248 47.7645L-156.664 49.1777L-155.957 49.8853L-154.542 48.472ZM369.424 573.145L-154.542 48.472L-155.957 49.8853L368.009 574.559L369.424 573.145ZM370.131 573.853L369.424 573.145L368.009 574.559L368.716 575.266L370.131 573.853ZM370.132 572.439L368.717 573.852L370.13 575.267L371.545 573.854L370.132 572.439ZM369.424 573.145L370.131 573.853L371.546 572.44L370.839 571.732L369.424 573.145ZM-154.542 48.472L369.424 573.145L370.839 571.732L-153.127 47.0588L-154.542 48.472ZM-170.097 64.0293L-170.804 63.3218L-172.219 64.735L-171.512 65.4426L-170.097 64.0293ZM353.869 588.703L-170.097 64.0293L-171.512 65.4426L352.454 590.116L353.869 588.703ZM354.576 589.41L353.869 588.703L352.454 590.116L353.16 590.823L354.576 589.41ZM353.159 592.238L354.575 590.824L353.161 589.409L351.746 590.822L353.159 592.238ZM351.039 591.529L351.745 592.237L353.16 590.823L352.454 590.116L351.039 591.529ZM-172.928 66.8559L351.039 591.529L352.454 590.116L-171.512 65.4426L-172.928 66.8559ZM-173.634 66.1483L-172.928 66.8559L-171.512 65.4426L-172.219 64.735L-173.634 66.1483ZM-172.218 63.3208L-173.633 64.7341L-172.22 66.1492L-170.805 64.736L-172.218 63.3208ZM-189.19 81.7056L-188.483 82.4132L-187.068 80.9999L-187.774 80.2923L-189.19 81.7056ZM-189.191 83.1198L-187.775 81.7065L-189.189 80.2914L-190.604 81.7046L-189.191 83.1198ZM-188.483 82.4132L-189.19 81.7056L-190.605 83.1189L-189.898 83.8264L-188.483 82.4132ZM335.483 607.086L-188.483 82.4132L-189.898 83.8264L334.068 608.5L335.483 607.086ZM336.19 607.794L335.483 607.086L334.068 608.5L334.775 609.207L336.19 607.794ZM336.191 606.38L334.776 607.793L336.189 609.208L337.604 607.795L336.191 606.38ZM335.483 607.086L336.19 607.794L337.605 606.381L336.898 605.673L335.483 607.086ZM-188.483 82.4132L335.483 607.086L336.898 605.673L-187.068 80.9999L-188.483 82.4132Z" fill="black"/>
</g>
</svg>
