<svg width="48" height="318" viewBox="0 0 48 318" fill="none" xmlns="http://www.w3.org/2000/svg">
<mask id="mask0_54_2330" style="mask-type:luminance" maskUnits="userSpaceOnUse" x="-352" y="0" width="400" height="400">
<circle cx="-152" cy="200" r="200" fill="white"/>
</mask>
<g mask="url(#mask0_54_2330)">
<path d="M-251.982 -207.501L-251.275 -208.208L-251.981 -208.915L-252.689 -208.209L-251.982 -207.501ZM-251.276 -206.793L-250.568 -207.5L-251.276 -206.793ZM-253.398 -206.088L-254.104 -206.795L-254.812 -206.089L-254.105 -205.381L-253.398 -206.088ZM-252.691 -205.38L-251.983 -206.087L-251.983 -206.087L-252.691 -205.38ZM271.275 319.293L270.568 320L271.275 319.293ZM271.982 320.001L271.274 320.707L271.981 321.415L272.688 320.708L271.982 320.001ZM273.397 318.587L274.104 319.295L274.811 318.588L274.105 317.881L273.397 318.587ZM272.69 317.88L271.983 318.586L272.69 317.88ZM-268.953 -190.53L-268.246 -191.237L-268.952 -191.945L-269.66 -191.238L-268.953 -190.53ZM-268.247 -189.823L-267.539 -190.529L-267.539 -190.529L-268.247 -189.823ZM-270.368 -189.117L-271.075 -189.825L-271.783 -189.118L-271.076 -188.41L-270.368 -189.117ZM-269.662 -188.409L-270.369 -187.703L-270.369 -187.703L-269.662 -188.409ZM254.304 336.264L253.597 336.97L254.304 336.264ZM255.011 336.971L254.304 337.678L255.01 338.386L255.718 337.679L255.011 336.971ZM256.426 335.558L257.133 336.266L257.84 335.559L257.134 334.851L256.426 335.558ZM255.72 334.851L256.427 334.144L255.72 334.851ZM-285.217 -172.852L-285.924 -172.145L-285.924 -172.145L-285.217 -172.852ZM-285.923 -173.56L-285.216 -174.266L-285.922 -174.974L-286.63 -174.267L-285.923 -173.56ZM238.749 351.821L239.457 351.115L238.749 351.821ZM239.456 352.529L240.163 353.236L240.87 352.53L240.164 351.822L239.456 352.529ZM238.041 353.942L237.333 354.649L238.04 355.356L238.747 354.65L238.041 353.942ZM237.334 353.234L238.042 352.528L237.334 353.234ZM-286.632 -171.439L-287.339 -170.732L-287.339 -170.732L-286.632 -171.439ZM-287.339 -172.146L-288.045 -172.854L-288.753 -172.147L-288.046 -171.44L-287.339 -172.146ZM-302.894 -156.589L-302.186 -157.296L-302.893 -158.003L-303.601 -157.296L-302.894 -156.589ZM-302.187 -155.881L-301.48 -156.588L-301.48 -156.588L-302.187 -155.881ZM-304.309 -155.176L-305.016 -155.883L-305.723 -155.177L-305.017 -154.469L-304.309 -155.176ZM-303.603 -154.468L-302.895 -155.175L-302.895 -155.175L-303.603 -154.468ZM220.364 370.205L219.656 370.912L220.364 370.205ZM221.07 370.913L220.363 371.619L221.069 372.327L221.777 371.62L221.07 370.913ZM222.485 369.499L223.192 370.207L223.9 369.5L223.193 368.793L222.485 369.499ZM221.779 368.792L221.071 369.499L221.779 368.792ZM-319.158 -138.911L-318.451 -139.617L-318.451 -139.617L-319.158 -138.911ZM-319.865 -139.618L-319.157 -140.325L-319.864 -141.032L-320.571 -140.326L-319.865 -139.618ZM204.808 385.763L204.1 386.469L204.808 385.763ZM205.515 386.47L206.221 387.178L206.929 386.471L206.222 385.764L205.515 386.47ZM204.099 387.883L203.392 388.59L204.098 389.298L204.806 388.591L204.099 387.883ZM203.393 387.176L202.685 387.883L203.393 387.176ZM-320.573 -137.497L-319.866 -138.204L-319.866 -138.204L-320.573 -137.497ZM-321.28 -138.205L-321.987 -138.913L-322.694 -138.206L-321.988 -137.498L-321.28 -138.205ZM-336.835 -122.648L-336.128 -123.355L-336.835 -124.063L-337.542 -123.356L-336.835 -122.648ZM-336.129 -121.941L-335.421 -122.648L-335.421 -122.648L-336.129 -121.941ZM-338.251 -121.235L-338.957 -121.943L-339.665 -121.236L-338.958 -120.529L-338.251 -121.235ZM-337.544 -120.528L-336.836 -121.234L-336.836 -121.234L-337.544 -120.528ZM186.422 404.146L185.715 404.852L186.422 404.146ZM187.129 404.853L186.421 405.56L187.128 406.267L187.835 405.561L187.129 404.853ZM188.544 403.44L189.251 404.148L189.958 403.441L189.251 402.733L188.544 403.44ZM187.837 402.732L187.13 403.439L187.837 402.732ZM-353.099 -104.969L-352.391 -105.676L-352.391 -105.676L-353.099 -104.969ZM-353.806 -105.677L-353.098 -106.383L-353.805 -107.091L-354.512 -106.384L-353.806 -105.677ZM170.867 419.704L170.159 420.411L170.867 419.704ZM171.574 420.412L172.28 421.119L172.988 420.413L172.281 419.705L171.574 420.412ZM170.159 421.825L169.451 422.532L170.158 423.239L170.865 422.532L170.159 421.825ZM169.452 421.117L168.744 421.824L169.452 421.117ZM-354.514 -103.556L-353.807 -104.263L-353.807 -104.263L-354.514 -103.556ZM-355.221 -104.264L-355.927 -104.971L-356.635 -104.264L-355.928 -103.557L-355.221 -104.264ZM-370.776 -88.7061L-370.069 -89.4127L-370.775 -90.1203L-371.483 -89.4137L-370.776 -88.7061ZM-370.07 -87.9985L-369.362 -88.7051L-369.362 -88.7051L-370.07 -87.9985ZM-372.192 -87.2928L-372.898 -88.0004L-373.606 -87.2938L-372.899 -86.5862L-372.192 -87.2928ZM-371.485 -86.5852L-370.777 -87.2919L-370.777 -87.2919L-371.485 -86.5852ZM152.481 438.088L151.774 438.795L152.481 438.088ZM153.188 438.796L152.48 439.502L153.187 440.21L153.894 439.503L153.188 438.796ZM154.603 437.382L155.31 438.09L156.017 437.383L155.311 436.676L154.603 437.382ZM153.896 436.675L153.189 437.381L153.896 436.675ZM-387.04 -71.0297L-386.333 -71.7364L-386.333 -71.7364L-387.04 -71.0297ZM-387.747 -71.7373L-387.04 -72.444L-387.746 -73.1515L-388.454 -72.4449L-387.747 -71.7373ZM136.926 453.643L136.218 454.35L136.926 453.643ZM137.632 454.351L138.339 455.059L139.046 454.352L138.34 453.644L137.632 454.351ZM136.217 455.764L135.51 456.471L136.216 457.179L136.924 456.472L136.217 455.764ZM135.51 455.057L134.803 455.763L135.51 455.057ZM-388.456 -69.6165L-387.748 -70.3231L-387.748 -70.3231L-388.456 -69.6165ZM-389.162 -70.3241L-389.869 -71.0317L-390.576 -70.325L-389.87 -69.6174L-389.162 -70.3241ZM-404.717 -54.7666L-404.01 -55.4732L-404.716 -56.1808L-405.424 -55.4742L-404.717 -54.7666ZM-404.011 -54.059L-403.303 -54.7657L-403.303 -54.7657L-404.011 -54.059ZM-406.132 -53.3534L-406.839 -54.0609L-407.547 -53.3543L-406.84 -52.6467L-406.132 -53.3534ZM-405.426 -52.6458L-404.718 -53.3524L-404.718 -53.3524L-405.426 -52.6458ZM118.54 472.027L117.833 472.734L118.54 472.027ZM119.247 472.735L118.539 473.442L119.246 474.149L119.954 473.443L119.247 472.735ZM120.662 471.322L121.369 472.029L122.076 471.323L121.37 470.615L120.662 471.322ZM119.955 470.614L119.248 471.321L119.955 470.614ZM-420.981 -37.0883L-420.274 -37.795L-420.274 -37.795L-420.981 -37.0883ZM-421.688 -37.7959L-420.98 -38.5025L-421.687 -39.2101L-422.395 -38.5035L-421.688 -37.7959ZM102.985 487.585L102.277 488.292L102.985 487.585ZM103.691 488.292L104.398 489L105.106 488.293L104.399 487.586L103.691 488.292ZM102.276 489.706L101.569 490.412L102.275 491.12L102.983 490.413L102.276 489.706ZM101.57 488.998L100.862 489.705L101.57 488.998ZM-422.397 -35.6751L-421.689 -36.3817L-421.689 -36.3817L-422.397 -35.6751ZM-423.103 -36.3827L-423.81 -37.0902L-424.517 -36.3836L-423.811 -35.676L-423.103 -36.3827ZM-438.659 -20.8252L-437.951 -21.5318L-438.658 -22.2394L-439.365 -21.5328L-438.659 -20.8252ZM-437.952 -20.1176L-437.245 -20.8243L-437.245 -20.8243L-437.952 -20.1176ZM-440.074 -19.4119L-440.781 -20.1195L-441.488 -19.4129L-440.781 -18.7053L-440.074 -19.4119ZM-439.367 -18.7044L-438.66 -19.411L-438.66 -19.411L-439.367 -18.7044ZM84.5989 505.969L83.8913 506.676L84.5989 505.969ZM85.3055 506.676L84.5979 507.383L85.3046 508.091L86.0121 507.384L85.3055 506.676ZM86.7207 505.263L87.4273 505.971L88.1349 505.264L87.4282 504.557L86.7207 505.263ZM86.014 504.556L85.3065 505.262L86.014 504.556ZM-454.923 -3.14693L-454.215 -3.85356L-454.215 -3.85357L-454.923 -3.14693ZM-455.629 -3.85452L-454.922 -4.56115L-455.628 -5.26873L-456.336 -4.5621L-455.629 -3.85452ZM69.0433 521.526L68.3358 522.233L69.0433 521.526ZM69.75 522.234L70.4566 522.941L71.1642 522.235L70.4576 521.527L69.75 522.234ZM68.3348 523.647L67.6272 524.354L68.3339 525.061L69.0414 524.355L68.3348 523.647ZM67.6282 522.94L66.9206 523.646L67.6282 522.94ZM-456.338 -1.73367L-455.63 -2.4403L-455.63 -2.44031L-456.338 -1.73367ZM-457.045 -2.44126L-457.751 -3.14884L-458.459 -2.44221L-457.752 -1.73462L-457.045 -2.44126ZM-472.6 13.1162L-471.892 12.4096L-472.599 11.702L-473.306 12.4086L-472.6 13.1162ZM-471.893 13.8238L-471.185 13.1172L-471.185 13.1172L-471.893 13.8238ZM-474.015 14.5295L-474.721 13.8219L-475.429 14.5285L-474.722 15.2361L-474.015 14.5295ZM-473.308 15.237L-472.601 14.5304L-472.601 14.5304L-473.308 15.237ZM50.658 539.91L49.9504 540.617L50.658 539.91ZM51.3646 540.618L50.657 541.325L51.3636 542.032L52.0712 541.325L51.3646 540.618ZM52.7798 539.205L53.4864 539.912L54.194 539.206L53.4873 538.498L52.7798 539.205ZM52.0731 538.497L51.3655 539.204L52.0731 538.497ZM-488.864 30.7945L-488.156 30.0878L-488.156 30.0878L-488.864 30.7945ZM-489.57 30.0869L-488.863 29.3803L-489.569 28.6727L-490.277 29.3793L-489.57 30.0869ZM35.1024 555.468L34.3949 556.174L35.1024 555.468ZM35.8091 556.175L36.5157 556.883L37.2233 556.176L36.5166 555.469L35.8091 556.175ZM34.3939 557.589L33.6863 558.295L34.393 559.003L35.1005 558.296L34.3939 557.589ZM33.6873 556.881L32.9797 557.588L33.6873 556.881ZM-490.279 32.2077L-489.571 31.5011L-489.571 31.5011L-490.279 32.2077ZM-490.986 31.5002L-491.692 30.7926L-492.4 31.4992L-491.693 32.2068L-490.986 31.5002ZM-506.541 47.0576L-505.833 46.351L-506.54 45.6434L-507.248 46.35L-506.541 47.0576ZM-505.834 47.7652L-505.127 47.0586L-505.127 47.0586L-505.834 47.7652ZM-507.956 48.4709L-508.663 47.7633L-509.37 48.4699L-508.664 49.1775L-507.956 48.4709ZM-507.25 49.1785L-506.542 48.4718L-506.542 48.4718L-507.25 49.1785ZM16.7166 573.852L16.009 574.558L16.7166 573.852ZM17.4232 574.559L16.7156 575.266L17.4222 575.973L18.1298 575.267L17.4232 574.559ZM18.8384 573.146L19.545 573.854L20.2526 573.147L19.5459 572.439L18.8384 573.146ZM18.1317 572.438L17.4241 573.145L18.1317 572.438ZM-522.805 64.7359L-522.097 64.0293L-522.097 64.0293L-522.805 64.7359ZM-523.511 64.0283L-522.804 63.3217L-523.51 62.6141L-524.218 63.3207L-523.511 64.0283ZM1.16148 589.409L0.453899 590.116L1.16148 589.409ZM1.86811 590.117L2.57474 590.824L3.28233 590.118L2.57569 589.41L1.86811 590.117ZM0.452949 591.53L-0.254632 592.237L0.452 592.944L1.15958 592.238L0.452949 591.53ZM-0.253683 590.822L-0.961264 591.529L-0.253683 590.822ZM-524.22 66.1491L-523.512 65.4425L-523.512 65.4425L-524.22 66.1491ZM-524.926 65.4416L-525.633 64.734L-526.341 65.4406L-525.634 66.1482L-524.926 65.4416ZM-540.482 80.999L-539.774 80.2924L-540.481 79.5848L-541.189 80.2914L-540.482 80.999ZM-539.775 81.7066L-539.068 81L-539.068 81L-539.775 81.7066ZM-541.897 82.4123L-542.604 81.7047L-543.311 82.4113L-542.605 83.1189L-541.897 82.4123ZM-541.19 83.1198L-540.483 82.4132L-540.483 82.4132L-541.19 83.1198ZM-17.2244 607.793L-17.932 608.5L-17.2244 607.793ZM-16.5177 608.501L-17.2253 609.207L-16.5187 609.915L-15.8111 609.208L-16.5177 608.501ZM-15.1026 607.087L-14.3959 607.795L-13.6884 607.088L-14.395 606.381L-15.1026 607.087ZM-15.8092 606.38L-16.5168 607.086L-15.8092 606.38ZM-252.69 -206.794L-251.983 -206.087L-250.568 -207.5L-251.275 -208.208L-252.69 -206.794ZM-252.691 -205.38L-251.276 -206.793L-252.689 -208.209L-254.104 -206.795L-252.691 -205.38ZM-251.983 -206.087L-252.69 -206.794L-254.105 -205.381L-253.399 -204.674L-251.983 -206.087ZM271.983 318.586L-251.983 -206.087L-253.399 -204.674L270.568 320L271.983 318.586ZM272.689 319.294L271.983 318.586L270.568 320L271.274 320.707L272.689 319.294ZM272.69 317.88L271.275 319.293L272.688 320.708L274.104 319.295L272.69 317.88ZM271.983 318.586L272.689 319.294L274.105 317.881L273.398 317.173L271.983 318.586ZM-251.983 -206.087L271.983 318.586L273.398 317.173L-250.568 -207.5L-251.983 -206.087ZM-269.661 -189.824L-268.954 -189.116L-267.539 -190.529L-268.246 -191.237L-269.661 -189.824ZM-269.662 -188.409L-268.247 -189.823L-269.66 -191.238L-271.075 -189.825L-269.662 -188.409ZM-268.954 -189.116L-269.661 -189.824L-271.076 -188.41L-270.369 -187.703L-268.954 -189.116ZM255.012 335.557L-268.954 -189.116L-270.369 -187.703L253.597 336.97L255.012 335.557ZM255.719 336.265L255.012 335.557L253.597 336.97L254.304 337.678L255.719 336.265ZM255.72 334.851L254.304 336.264L255.718 337.679L257.133 336.266L255.72 334.851ZM255.012 335.557L255.719 336.265L257.134 334.851L256.427 334.144L255.012 335.557ZM-268.954 -189.116L255.012 335.557L256.427 334.144L-267.539 -190.529L-268.954 -189.116ZM-284.509 -173.559L-285.216 -174.266L-286.631 -172.853L-285.924 -172.145L-284.509 -173.559ZM239.457 351.115L-284.509 -173.559L-285.924 -172.145L238.042 352.528L239.457 351.115ZM240.164 351.822L239.457 351.115L238.042 352.528L238.748 353.235L240.164 351.822ZM238.747 354.65L240.163 353.236L238.749 351.821L237.334 353.234L238.747 354.65ZM236.627 353.941L237.333 354.649L238.748 353.235L238.042 352.528L236.627 353.941ZM-287.339 -170.732L236.627 353.941L238.042 352.528L-285.924 -172.145L-287.339 -170.732ZM-288.046 -171.44L-287.339 -170.732L-285.924 -172.145L-286.631 -172.853L-288.046 -171.44ZM-286.63 -174.267L-288.045 -172.854L-286.632 -171.439L-285.217 -172.852L-286.63 -174.267ZM-303.602 -155.882L-302.895 -155.175L-301.48 -156.588L-302.186 -157.296L-303.602 -155.882ZM-303.603 -154.468L-302.187 -155.881L-303.601 -157.296L-305.016 -155.883L-303.603 -154.468ZM-302.895 -155.175L-303.602 -155.882L-305.017 -154.469L-304.31 -153.761L-302.895 -155.175ZM221.071 369.499L-302.895 -155.175L-304.31 -153.761L219.656 370.912L221.071 369.499ZM221.778 370.206L221.071 369.499L219.656 370.912L220.363 371.619L221.778 370.206ZM221.779 368.792L220.364 370.205L221.777 371.62L223.192 370.207L221.779 368.792ZM221.071 369.499L221.778 370.206L223.193 368.793L222.486 368.085L221.071 369.499ZM-302.895 -155.175L221.071 369.499L222.486 368.085L-301.48 -156.588L-302.895 -155.175ZM-318.451 -139.617L-319.157 -140.325L-320.572 -138.912L-319.866 -138.204L-318.451 -139.617ZM205.516 385.056L-318.451 -139.617L-319.866 -138.204L204.1 386.469L205.516 385.056ZM206.222 385.764L205.516 385.056L204.1 386.469L204.807 387.177L206.222 385.764ZM204.806 388.591L206.221 387.178L204.808 385.763L203.393 387.176L204.806 388.591ZM202.685 387.883L203.392 388.59L204.807 387.177L204.1 386.469L202.685 387.883ZM-321.281 -136.791L202.685 387.883L204.1 386.469L-319.866 -138.204L-321.281 -136.791ZM-321.988 -137.498L-321.281 -136.791L-319.866 -138.204L-320.572 -138.912L-321.988 -137.498ZM-320.571 -140.326L-321.987 -138.913L-320.573 -137.497L-319.158 -138.911L-320.571 -140.326ZM-337.543 -121.942L-336.836 -121.234L-335.421 -122.648L-336.128 -123.355L-337.543 -121.942ZM-337.544 -120.528L-336.129 -121.941L-337.542 -123.356L-338.957 -121.943L-337.544 -120.528ZM-336.836 -121.234L-337.543 -121.942L-338.958 -120.529L-338.252 -119.821L-336.836 -121.234ZM187.13 403.439L-336.836 -121.234L-338.252 -119.821L185.715 404.852L187.13 403.439ZM187.836 404.147L187.13 403.439L185.715 404.852L186.421 405.56L187.836 404.147ZM187.837 402.732L186.422 404.146L187.835 405.561L189.251 404.148L187.837 402.732ZM187.13 403.439L187.836 404.147L189.251 402.733L188.545 402.026L187.13 403.439ZM-336.836 -121.234L187.13 403.439L188.545 402.026L-335.421 -122.648L-336.836 -121.234ZM-352.391 -105.676L-353.098 -106.383L-354.513 -104.97L-353.807 -104.263L-352.391 -105.676ZM171.575 418.997L-352.391 -105.676L-353.807 -104.263L170.159 420.411L171.575 418.997ZM172.281 419.705L171.575 418.997L170.159 420.411L170.866 421.118L172.281 419.705ZM170.865 422.532L172.28 421.119L170.867 419.704L169.452 421.117L170.865 422.532ZM168.744 421.824L169.451 422.532L170.866 421.118L170.159 420.411L168.744 421.824ZM-355.222 -102.849L168.744 421.824L170.159 420.411L-353.807 -104.263L-355.222 -102.849ZM-355.928 -103.557L-355.222 -102.849L-353.807 -104.263L-354.513 -104.97L-355.928 -103.557ZM-354.512 -106.384L-355.927 -104.971L-354.514 -103.556L-353.099 -104.969L-354.512 -106.384ZM-371.484 -87.9994L-370.777 -87.2919L-369.362 -88.7051L-370.069 -89.4127L-371.484 -87.9994ZM-371.485 -86.5852L-370.07 -87.9985L-371.483 -89.4137L-372.898 -88.0004L-371.485 -86.5852ZM-370.777 -87.2919L-371.484 -87.9994L-372.899 -86.5862L-372.193 -85.8786L-370.777 -87.2919ZM153.189 437.381L-370.777 -87.2919L-372.193 -85.8786L151.774 438.795L153.189 437.381ZM153.895 438.089L153.189 437.381L151.774 438.795L152.48 439.502L153.895 438.089ZM153.896 436.675L152.481 438.088L153.894 439.503L155.31 438.09L153.896 436.675ZM153.189 437.381L153.895 438.089L155.311 436.676L154.604 435.968L153.189 437.381ZM-370.777 -87.2919L153.189 437.381L154.604 435.968L-369.362 -88.7051L-370.777 -87.2919ZM-386.333 -71.7364L-387.04 -72.444L-388.455 -71.0307L-387.748 -70.3231L-386.333 -71.7364ZM137.633 452.937L-386.333 -71.7364L-387.748 -70.3231L136.218 454.35L137.633 452.937ZM138.34 453.644L137.633 452.937L136.218 454.35L136.925 455.058L138.34 453.644ZM136.924 456.472L138.339 455.059L136.926 453.643L135.51 455.057L136.924 456.472ZM134.803 455.763L135.51 456.471L136.925 455.058L136.218 454.35L134.803 455.763ZM-389.163 -68.9099L134.803 455.763L136.218 454.35L-387.748 -70.3231L-389.163 -68.9099ZM-389.87 -69.6174L-389.163 -68.9098L-387.748 -70.3231L-388.455 -71.0307L-389.87 -69.6174ZM-388.454 -72.4449L-389.869 -71.0317L-388.456 -69.6165L-387.04 -71.0297L-388.454 -72.4449ZM-405.425 -54.06L-404.718 -53.3524L-403.303 -54.7657L-404.01 -55.4732L-405.425 -54.06ZM-405.426 -52.6458L-404.011 -54.059L-405.424 -55.4742L-406.839 -54.0609L-405.426 -52.6458ZM-404.718 -53.3524L-405.425 -54.06L-406.84 -52.6467L-406.133 -51.9391L-404.718 -53.3524ZM119.248 471.321L-404.718 -53.3524L-406.133 -51.9391L117.833 472.734L119.248 471.321ZM119.954 472.028L119.248 471.321L117.833 472.734L118.539 473.442L119.954 472.028ZM119.955 470.614L118.54 472.027L119.954 473.443L121.369 472.029L119.955 470.614ZM119.248 471.321L119.954 472.028L121.37 470.615L120.663 469.908L119.248 471.321ZM-404.718 -53.3524L119.248 471.321L120.663 469.908L-403.303 -54.7657L-404.718 -53.3524ZM-420.274 -37.795L-420.98 -38.5025L-422.396 -37.0893L-421.689 -36.3817L-420.274 -37.795ZM103.692 486.878L-420.274 -37.795L-421.689 -36.3817L102.277 488.292L103.692 486.878ZM104.399 487.586L103.692 486.878L102.277 488.292L102.984 488.999L104.399 487.586ZM102.983 490.413L104.398 489L102.985 487.585L101.57 488.998L102.983 490.413ZM100.862 489.705L101.569 490.412L102.984 488.999L102.277 488.292L100.862 489.705ZM-423.104 -34.9684L100.862 489.705L102.277 488.292L-421.689 -36.3817L-423.104 -34.9684ZM-423.811 -35.676L-423.104 -34.9684L-421.689 -36.3817L-422.396 -37.0893L-423.811 -35.676ZM-422.395 -38.5035L-423.81 -37.0902L-422.397 -35.6751L-420.981 -37.0883L-422.395 -38.5035ZM-439.366 -20.1186L-438.66 -19.411L-437.245 -20.8243L-437.951 -21.5318L-439.366 -20.1186ZM-439.367 -18.7044L-437.952 -20.1176L-439.365 -21.5328L-440.781 -20.1195L-439.367 -18.7044ZM-438.66 -19.411L-439.366 -20.1186L-440.781 -18.7053L-440.075 -17.9977L-438.66 -19.411ZM85.3065 505.262L-438.66 -19.411L-440.075 -17.9977L83.8913 506.676L85.3065 505.262ZM86.0131 505.97L85.3065 505.262L83.8913 506.676L84.5979 507.383L86.0131 505.97ZM86.014 504.556L84.5989 505.969L86.0121 507.384L87.4273 505.971L86.014 504.556ZM85.3065 505.262L86.0131 505.97L87.4282 504.557L86.7216 503.849L85.3065 505.262ZM-438.66 -19.411L85.3065 505.262L86.7216 503.849L-437.245 -20.8243L-438.66 -19.411ZM-454.215 -3.85357L-454.922 -4.56115L-456.337 -3.14788L-455.63 -2.4403L-454.215 -3.85357ZM69.7509 520.82L-454.215 -3.85356L-455.63 -2.4403L68.3358 522.233L69.7509 520.82ZM70.4576 521.527L69.7509 520.82L68.3358 522.233L69.0424 522.941L70.4576 521.527ZM69.0414 524.355L70.4566 522.941L69.0433 521.526L67.6282 522.94L69.0414 524.355ZM66.9206 523.646L67.6272 524.354L69.0424 522.941L68.3358 522.233L66.9206 523.646ZM-457.046 -1.02704L66.9206 523.646L68.3358 522.233L-455.63 -2.4403L-457.046 -1.02704ZM-457.752 -1.73462L-457.046 -1.02704L-455.63 -2.44031L-456.337 -3.14789L-457.752 -1.73462ZM-456.336 -4.5621L-457.751 -3.14884L-456.338 -1.73367L-454.923 -3.14693L-456.336 -4.5621ZM-473.307 13.8228L-472.601 14.5304L-471.185 13.1172L-471.892 12.4096L-473.307 13.8228ZM-473.308 15.237L-471.893 13.8238L-473.306 12.4086L-474.721 13.8219L-473.308 15.237ZM-472.601 14.5304L-473.307 13.8228L-474.722 15.2361L-474.016 15.9437L-472.601 14.5304ZM51.3655 539.204L-472.601 14.5304L-474.016 15.9437L49.9504 540.617L51.3655 539.204ZM52.0722 539.911L51.3655 539.204L49.9504 540.617L50.657 541.325L52.0722 539.911ZM52.0731 538.497L50.658 539.91L52.0712 541.325L53.4864 539.912L52.0731 538.497ZM51.3655 539.204L52.0722 539.911L53.4873 538.498L52.7807 537.79L51.3655 539.204ZM-472.601 14.5304L51.3655 539.204L52.7807 537.79L-471.185 13.1172L-472.601 14.5304ZM-488.156 30.0878L-488.863 29.3803L-490.278 30.7935L-489.571 31.5011L-488.156 30.0878ZM35.81 554.761L-488.156 30.0878L-489.571 31.5011L34.3949 556.174L35.81 554.761ZM36.5166 555.469L35.81 554.761L34.3949 556.174L35.1015 556.882L36.5166 555.469ZM35.1005 558.296L36.5157 556.883L35.1024 555.468L33.6873 556.881L35.1005 558.296ZM32.9797 557.588L33.6863 558.295L35.1015 556.882L34.3949 556.174L32.9797 557.588ZM-490.986 32.9144L32.9797 557.588L34.3949 556.174L-489.571 31.5011L-490.986 32.9144ZM-491.693 32.2068L-490.986 32.9144L-489.571 31.5011L-490.278 30.7935L-491.693 32.2068ZM-490.277 29.3793L-491.692 30.7926L-490.279 32.2077L-488.864 30.7945L-490.277 29.3793ZM-507.249 47.7642L-506.542 48.4718L-505.127 47.0586L-505.833 46.351L-507.249 47.7642ZM-507.25 49.1785L-505.834 47.7652L-507.248 46.35L-508.663 47.7633L-507.25 49.1785ZM-506.542 48.4718L-507.249 47.7642L-508.664 49.1775L-507.957 49.8851L-506.542 48.4718ZM17.4241 573.145L-506.542 48.4718L-507.957 49.8851L16.009 574.558L17.4241 573.145ZM18.1308 573.853L17.4241 573.145L16.009 574.558L16.7156 575.266L18.1308 573.853ZM18.1317 572.438L16.7166 573.852L18.1298 575.267L19.545 573.854L18.1317 572.438ZM17.4241 573.145L18.1308 573.853L19.5459 572.439L18.8393 571.732L17.4241 573.145ZM-506.542 48.4718L17.4241 573.145L18.8393 571.732L-505.127 47.0586L-506.542 48.4718ZM-522.097 64.0293L-522.804 63.3217L-524.219 64.7349L-523.512 65.4425L-522.097 64.0293ZM1.86906 588.702L-522.097 64.0293L-523.512 65.4425L0.453899 590.116L1.86906 588.702ZM2.57569 589.41L1.86906 588.702L0.453899 590.116L1.16053 590.823L2.57569 589.41ZM1.15958 592.238L2.57474 590.824L1.16148 589.409L-0.253683 590.822L1.15958 592.238ZM-0.961264 591.529L-0.254632 592.237L1.16053 590.823L0.453899 590.116L-0.961264 591.529ZM-524.927 66.8558L-0.961264 591.529L0.453899 590.116L-523.512 65.4425L-524.927 66.8558ZM-525.634 66.1482L-524.927 66.8558L-523.512 65.4425L-524.219 64.7349L-525.634 66.1482ZM-524.218 63.3207L-525.633 64.734L-524.22 66.1491L-522.805 64.7359L-524.218 63.3207ZM-541.19 81.7056L-540.483 82.4132L-539.068 81L-539.774 80.2924L-541.19 81.7056ZM-541.19 83.1198L-539.775 81.7066L-541.189 80.2914L-542.604 81.7047L-541.19 83.1198ZM-540.483 82.4132L-541.19 81.7056L-542.605 83.1189L-541.898 83.8265L-540.483 82.4132ZM-16.5168 607.086L-540.483 82.4132L-541.898 83.8265L-17.932 608.5L-16.5168 607.086ZM-15.8102 607.794L-16.5168 607.086L-17.932 608.5L-17.2253 609.207L-15.8102 607.794ZM-15.8092 606.38L-17.2244 607.793L-15.8111 609.208L-14.3959 607.795L-15.8092 606.38ZM-16.5168 607.086L-15.8102 607.794L-14.395 606.381L-15.1016 605.673L-16.5168 607.086ZM-540.483 82.4132L-16.5168 607.086L-15.1016 605.673L-539.068 81L-540.483 82.4132Z" fill="black"/>
</g>
</svg>
