<svg width="192" height="368" viewBox="0 0 192 368" fill="none" xmlns="http://www.w3.org/2000/svg">
<path d="M93.9865 360.332C99.1104 357.648 107.666 352.569 120.253 344.661C120.603 344.441 120.778 344.03 121.048 342.83C121.061 342.773 121.061 342.773 121.074 342.715C121.373 341.395 121.613 340.74 122.205 340.097C124.508 337.591 126.492 335.734 131.035 331.693L131.053 331.676C135.807 327.447 137.864 325.511 140.204 322.902C144.309 318.327 149.248 311.619 154.875 303.124C156.876 300.103 158.948 296.879 161.087 293.467C164.748 287.627 168.48 281.442 172.412 274.747C173.898 272.218 175.346 269.728 176.958 266.94C177.674 265.702 179.959 261.74 180.388 260.999C194.028 237.424 191.223 211.061 175.262 183.366C171.795 177.351 168.417 172.339 164.751 167.945C164.655 167.829 164.32 167.426 164.273 167.37C164.082 167.141 163.931 166.961 163.783 166.789C162.038 164.749 160.753 163.81 159.396 163.812C151.946 163.826 150.348 164.497 149.165 166.959C147.769 169.864 147.072 170.876 144.667 172.615C126.189 185.978 114.074 194.21 101.176 201.814C85.0949 211.295 69.7143 218.451 53.6147 223.639C33.5529 230.104 16.1155 225.252 7.30176 208.137C-0.784329 192.435 -0.830257 172.355 5.57591 148.091C8.99409 135.144 14.0342 121.632 21.0082 105.753C22.8127 101.645 24.6723 97.5383 27.0306 92.4223C27.2684 91.9065 31.435 82.905 32.5362 80.4975C36.5513 71.719 38.7511 66.4198 39.9426 62.381C41.2962 57.7928 42.0258 54.0186 43.4021 45.4401C44.0953 41.1193 44.4188 39.2003 44.8809 36.8101L46.8445 37.1896C46.3878 39.552 46.0666 41.4571 45.3768 45.7569C43.987 54.4196 43.2466 58.2495 41.8609 62.9469C40.6336 67.107 38.4095 72.4648 34.3549 81.3293C33.2515 83.7418 29.083 92.7474 28.8469 93.2596C26.4933 98.3656 24.6383 102.462 22.8393 106.558C15.9035 122.349 10.897 135.771 7.50966 148.601C1.2178 172.433 1.26265 192.042 9.07985 207.222C17.3924 223.364 33.7907 227.926 53.0013 221.736C68.9511 216.596 84.1996 209.501 100.16 200.091C112.992 192.526 125.064 184.323 143.495 170.994C145.564 169.498 146.099 168.722 147.362 166.093C148.945 162.799 151.257 161.827 159.392 161.812C161.528 161.809 163.198 163.029 165.303 165.488C165.458 165.669 165.614 165.855 165.81 166.09C165.858 166.148 166.192 166.55 166.287 166.664C170.034 171.155 173.475 176.26 176.995 182.368C193.281 210.627 196.164 237.725 182.119 262.001C181.691 262.74 179.407 266.701 178.69 267.941C177.076 270.733 175.625 273.226 174.137 275.76C170.195 282.47 166.454 288.671 162.782 294.529C160.634 297.955 158.553 301.193 156.542 304.228C150.866 312.798 145.876 319.575 141.693 324.238C139.286 326.921 137.192 328.892 132.383 333.171L132.364 333.187C127.871 337.184 125.92 339.01 123.677 341.45C123.404 341.748 123.247 342.175 123.025 343.156C123.012 343.213 123.012 343.213 122.999 343.27C122.61 344.998 122.293 345.741 121.317 346.354C108.689 354.288 100.095 359.39 94.9144 362.104C90.6983 364.312 88.6378 365.116 87.9007 364.231C86.7715 365.136 85.0133 366.546 84.1827 367.21L82.9333 365.649C84.1161 364.702 87.1924 362.234 87.6361 361.881C88.1124 361.501 88.4127 361.266 88.6147 361.115C88.7324 361.027 88.8227 360.962 88.8988 360.914C88.9694 360.869 88.9694 360.869 89.0799 360.814C89.2212 360.722 89.2212 360.722 89.8995 360.789C90.4044 361.142 90.4044 361.142 90.5243 361.627C90.5169 361.895 90.5159 361.93 90.4845 362.024C91.352 361.662 92.5134 361.103 93.9865 360.332Z" fill="black"/>
<circle cx="53" cy="51" r="51" fill="#16892D"/>
</svg>
