<svg width="638" height="678" viewBox="0 0 638 678" fill="none" xmlns="http://www.w3.org/2000/svg">
<mask id="mask0_33_829" style="mask-type:luminance" maskUnits="userSpaceOnUse" x="0" y="247" width="400" height="400">
<circle cx="200" cy="447" r="200" fill="white"/>
</mask>
<g mask="url(#mask0_33_829)">
<path d="M100.018 39.4996L100.725 38.7929L100.019 38.0853L99.311 38.792L100.018 39.4996ZM100.724 40.2071L101.432 39.5005L100.724 40.2071ZM98.6025 40.9128L97.8958 40.2052L97.1882 40.9119L97.8949 41.6194L98.6025 40.9128ZM99.3091 41.6204L100.017 40.9138L100.017 40.9138L99.3091 41.6204ZM623.275 566.294L623.983 565.587L623.275 566.294ZM623.982 567.001L623.274 567.708L623.981 568.415L624.688 567.709L623.982 567.001ZM625.397 565.588L626.104 566.295L626.811 565.589L626.105 564.881L625.397 565.588ZM624.69 564.88L623.983 565.587L624.69 564.88ZM83.0471 56.4701L83.7546 55.7635L83.048 55.0559L82.3404 55.7625L83.0471 56.4701ZM83.7537 57.1777L84.4613 56.4711L84.4613 56.4711L83.7537 57.1777ZM81.6319 57.8834L80.9253 57.1758L80.2177 57.8824L80.9243 58.59L81.6319 57.8834ZM82.3385 58.591L81.6309 59.2976L81.6309 59.2976L82.3385 58.591ZM606.305 583.264L605.597 583.971L606.305 583.264ZM607.011 583.972L606.304 584.678L607.01 585.386L607.718 584.679L607.011 583.972ZM608.426 582.558L609.133 583.266L609.841 582.559L609.134 581.852L608.426 582.558ZM607.72 581.851L608.427 581.144L607.72 581.851ZM66.7831 74.1483L66.0755 74.8549L66.0755 74.8549L66.7831 74.1483ZM66.0765 73.4407L66.7841 72.734L66.0774 72.0265L65.3699 72.7331L66.0765 73.4407ZM590.749 598.821L591.457 598.115L590.749 598.821ZM591.456 599.529L592.162 600.237L592.87 599.53L592.163 598.822L591.456 599.529ZM590.041 600.942L589.333 601.649L590.04 602.357L590.747 601.65L590.041 600.942ZM589.334 600.235L590.042 599.528L589.334 600.235ZM65.368 75.5615L64.6604 76.2682L64.6604 76.2682L65.368 75.5615ZM64.6613 74.8539L63.9547 74.1464L63.2471 74.853L63.9537 75.5606L64.6613 74.8539ZM49.1059 90.4112L49.8135 89.7046L49.1069 88.997L48.3993 89.7037L49.1059 90.4112ZM49.8126 91.1188L50.5201 90.4122L50.5201 90.4122L49.8126 91.1188ZM47.6908 91.8245L46.9841 91.1169L46.2765 91.8235L46.9832 92.5311L47.6908 91.8245ZM48.3974 92.5321L49.105 91.8255L49.105 91.8254L48.3974 92.5321ZM572.363 617.205L571.656 617.912L572.363 617.205ZM573.07 617.913L572.363 618.619L573.069 619.327L573.777 618.62L573.07 617.913ZM574.485 616.5L575.192 617.207L575.9 616.501L575.193 615.793L574.485 616.5ZM573.779 615.792L573.071 616.499L573.779 615.792ZM32.842 108.089L33.5496 107.383L33.5496 107.383L32.842 108.089ZM32.1354 107.382L32.843 106.675L32.1363 105.968L31.4287 106.674L32.1354 107.382ZM556.808 632.763L556.101 633.469L556.808 632.763ZM557.515 633.47L558.221 634.178L558.929 633.471L558.222 632.764L557.515 633.47ZM556.1 634.883L555.392 635.59L556.099 636.298L556.806 635.591L556.1 634.883ZM555.393 634.176L554.685 634.882L555.393 634.176ZM31.4268 109.503L32.1344 108.796L32.1344 108.796L31.4268 109.503ZM30.7202 108.795L30.0136 108.087L29.306 108.794L30.0126 109.502L30.7202 108.795ZM15.1648 124.352L15.8724 123.646L15.1658 122.938L14.4582 123.645L15.1648 124.352ZM15.8714 125.06L16.579 124.353L16.579 124.353L15.8714 125.06ZM13.7496 125.766L13.043 125.058L12.3354 125.765L13.0421 126.472L13.7496 125.766ZM14.4563 126.473L15.1639 125.767L15.1639 125.767L14.4563 126.473ZM538.422 651.146L537.715 651.853L538.422 651.146ZM539.129 651.854L538.421 652.561L539.128 653.268L539.836 652.562L539.129 651.854ZM540.544 650.441L541.251 651.148L541.958 650.442L541.252 649.734L540.544 650.441ZM539.838 649.733L539.13 650.44L539.838 649.733ZM-1.09901 142.03L-0.391431 141.324L-0.391433 141.324L-1.09901 142.03ZM-1.80565 141.323L-1.09807 140.616L-1.8047 139.908L-2.51228 140.615L-1.80565 141.323ZM522.867 666.703L522.16 667.41L522.867 666.703ZM523.574 667.411L524.28 668.119L524.988 667.412L524.281 666.704L523.574 667.411ZM522.159 668.824L521.451 669.531L522.158 670.239L522.865 669.532L522.159 668.824ZM521.452 668.117L520.744 668.823L521.452 668.117ZM-2.51418 143.444L-1.8066 142.737L-1.8066 142.737L-2.51418 143.444ZM-3.22081 142.736L-3.92745 142.028L-4.63503 142.735L-3.9284 143.443L-3.22081 142.736ZM-18.7763 158.293L-18.0687 157.587L-18.7754 156.879L-19.4829 157.586L-18.7763 158.293ZM-18.0697 159.001L-17.3621 158.294L-17.3621 158.294L-18.0697 159.001ZM-20.1915 159.707L-20.8981 158.999L-21.6057 159.706L-20.8991 160.413L-20.1915 159.707ZM-19.4849 160.414L-18.7773 159.708L-18.7773 159.708L-19.4849 160.414ZM504.481 685.088L503.774 685.794L504.481 685.088ZM505.188 685.795L504.48 686.502L505.187 687.209L505.895 686.503L505.188 685.795ZM506.603 684.382L507.31 685.089L508.017 684.383L507.311 683.675L506.603 684.382ZM505.896 683.674L505.189 684.381L505.896 683.674ZM-35.0402 175.972L-34.3327 175.265L-34.3327 175.265L-35.0402 175.972ZM-35.7469 175.264L-35.0393 174.557L-35.7459 173.85L-36.4535 174.556L-35.7469 175.264ZM488.926 700.645L488.218 701.351L488.926 700.645ZM489.632 701.352L490.339 702.06L491.047 701.353L490.34 700.646L489.632 701.352ZM488.217 702.766L487.51 703.472L488.216 704.18L488.924 703.473L488.217 702.766ZM487.511 702.058L486.803 702.765L487.511 702.058ZM-36.4554 177.385L-35.7478 176.678L-35.7478 176.678L-36.4554 177.385ZM-37.162 176.677L-37.8687 175.97L-38.5763 176.676L-37.8696 177.384L-37.162 176.677ZM-52.7174 192.235L-52.0099 191.528L-52.7165 190.82L-53.4241 191.527L-52.7174 192.235ZM-52.0108 192.942L-51.3032 192.236L-51.3032 192.236L-52.0108 192.942ZM-54.1326 193.648L-54.8392 192.94L-55.5468 193.647L-54.8402 194.355L-54.1326 193.648ZM-53.426 194.355L-52.7184 193.649L-52.7184 193.649L-53.426 194.355ZM470.54 719.029L469.833 719.735L470.54 719.029ZM471.247 719.736L470.539 720.443L471.246 721.15L471.953 720.444L471.247 719.736ZM472.662 718.323L473.369 719.031L474.076 718.324L473.369 717.616L472.662 718.323ZM471.955 717.615L471.248 718.322L471.955 717.615ZM-68.9814 209.913L-68.2738 209.206L-68.2738 209.206L-68.9814 209.913ZM-69.688 209.205L-68.9804 208.499L-69.6871 207.791L-70.3946 208.498L-69.688 209.205ZM454.985 734.586L454.277 735.293L454.985 734.586ZM455.691 735.294L456.398 736.001L457.106 735.294L456.399 734.587L455.691 735.294ZM454.276 736.707L453.569 737.413L454.275 738.121L454.983 737.414L454.276 736.707ZM453.57 735.999L452.862 736.706L453.57 735.999ZM-70.3965 211.326L-69.689 210.619L-69.689 210.619L-70.3965 211.326ZM-71.1032 210.618L-71.8098 209.911L-72.5174 210.617L-71.8108 211.325L-71.1032 210.618ZM-86.6586 226.176L-85.951 225.469L-86.6576 224.762L-87.3652 225.468L-86.6586 226.176ZM-85.9519 226.883L-85.2444 226.177L-85.2444 226.177L-85.9519 226.883ZM-88.0737 227.589L-88.7804 226.881L-89.488 227.588L-88.7813 228.296L-88.0737 227.589ZM-87.3671 228.297L-86.6595 227.59L-86.6595 227.59L-87.3671 228.297ZM436.599 752.97L435.891 753.676L436.599 752.97ZM437.306 753.677L436.598 754.384L437.305 755.092L438.012 754.385L437.306 753.677ZM438.721 752.264L439.427 752.972L440.135 752.265L439.428 751.557L438.721 752.264ZM438.014 751.557L437.307 752.263L438.014 751.557ZM-102.922 243.854L-102.215 243.147L-102.215 243.147L-102.922 243.854ZM-103.629 243.146L-102.922 242.44L-103.628 241.732L-104.336 242.439L-103.629 243.146ZM421.044 768.527L420.336 769.234L421.044 768.527ZM421.75 769.235L422.457 769.942L423.164 769.236L422.458 768.528L421.75 769.235ZM420.335 770.648L419.627 771.355L420.334 772.062L421.042 771.356L420.335 770.648ZM419.628 769.94L418.921 770.647L419.628 769.94ZM-104.338 245.267L-103.63 244.561L-103.63 244.561L-104.338 245.267ZM-105.044 244.56L-105.751 243.852L-106.459 244.559L-105.752 245.266L-105.044 244.56ZM-120.6 260.117L-119.892 259.41L-120.599 258.702L-121.306 259.409L-120.6 260.117ZM-119.893 260.824L-119.185 260.118L-119.185 260.118L-119.893 260.824ZM-122.015 261.53L-122.721 260.822L-123.429 261.529L-122.722 262.237L-122.015 261.53ZM-121.308 262.237L-120.601 261.531L-120.601 261.531L-121.308 262.237ZM402.658 786.911L401.95 787.617L402.658 786.911ZM403.365 787.618L402.657 788.325L403.364 789.032L404.071 788.326L403.365 787.618ZM404.78 786.205L405.486 786.913L406.194 786.206L405.487 785.498L404.78 786.205ZM404.073 785.497L403.366 786.204L404.073 785.497ZM-136.864 277.795L-136.156 277.088L-136.156 277.088L-136.864 277.795ZM-137.57 277.087L-136.863 276.381L-137.569 275.673L-138.277 276.38L-137.57 277.087ZM387.102 802.468L386.395 803.175L387.102 802.468ZM387.809 803.176L388.516 803.883L389.223 803.177L388.517 802.469L387.809 803.176ZM386.394 804.589L385.686 805.296L386.393 806.003L387.101 805.297L386.394 804.589ZM385.687 803.881L384.98 804.588L385.687 803.881ZM-138.279 279.208L-137.571 278.502L-137.571 278.502L-138.279 279.208ZM-138.985 278.501L-139.692 277.793L-140.4 278.5L-139.693 279.207L-138.985 278.501ZM-154.541 294.058L-153.833 293.351L-154.54 292.644L-155.247 293.35L-154.541 294.058ZM-153.834 294.766L-153.127 294.059L-153.127 294.059L-153.834 294.766ZM-155.956 295.471L-156.663 294.764L-157.37 295.47L-156.664 296.178L-155.956 295.471ZM-155.249 296.179L-154.542 295.472L-154.542 295.472L-155.249 296.179ZM368.717 820.852L368.009 821.559L368.717 820.852ZM369.423 821.56L368.716 822.266L369.422 822.974L370.13 822.267L369.423 821.56ZM370.839 820.146L371.545 820.854L372.253 820.147L371.546 819.44L370.839 820.146ZM370.132 819.439L369.424 820.145L370.132 819.439ZM-170.805 311.736L-170.097 311.03L-170.097 311.03L-170.805 311.736ZM-171.511 311.029L-170.804 310.322L-171.51 309.614L-172.218 310.321L-171.511 311.029ZM353.161 836.409L352.454 837.116L353.161 836.409ZM353.868 837.117L354.575 837.824L355.282 837.118L354.576 836.41L353.868 837.117ZM352.453 838.53L351.745 839.237L352.452 839.944L353.159 839.238L352.453 838.53ZM351.746 837.823L351.039 838.529L351.746 837.823ZM-172.22 313.149L-171.512 312.443L-171.512 312.443L-172.22 313.149ZM-172.927 312.442L-173.633 311.734L-174.341 312.441L-173.634 313.148L-172.927 312.442ZM-188.482 327.999L-187.774 327.292L-188.481 326.585L-189.189 327.292L-188.482 327.999ZM-187.775 328.707L-187.068 328L-187.068 328L-187.775 328.707ZM-189.897 329.412L-190.604 328.705L-191.311 329.411L-190.605 330.119L-189.897 329.412ZM-189.19 330.12L-188.483 329.413L-188.483 329.413L-189.19 330.12ZM334.776 854.793L334.068 855.5L334.776 854.793ZM335.482 855.501L334.775 856.207L335.481 856.915L336.189 856.208L335.482 855.501ZM336.897 854.087L337.604 854.795L338.312 854.088L337.605 853.381L336.897 854.087ZM336.191 853.38L335.483 854.087L336.191 853.38ZM99.31 40.2062L100.017 40.9138L101.432 39.5005L100.725 38.7929L99.31 40.2062ZM99.3091 41.6204L100.724 40.2071L99.311 38.792L97.8958 40.2052L99.3091 41.6204ZM100.017 40.9138L99.31 40.2062L97.8949 41.6194L98.6015 42.327L100.017 40.9138ZM623.983 565.587L100.017 40.9138L98.6015 42.327L622.568 567L623.983 565.587ZM624.689 566.295L623.983 565.587L622.568 567L623.274 567.708L624.689 566.295ZM624.69 564.88L623.275 566.294L624.688 567.709L626.104 566.295L624.69 564.88ZM623.983 565.587L624.689 566.295L626.105 564.881L625.398 564.174L623.983 565.587ZM100.017 40.9138L623.983 565.587L625.398 564.174L101.432 39.5005L100.017 40.9138ZM82.3395 57.1767L83.0461 57.8843L84.4613 56.4711L83.7546 55.7635L82.3395 57.1767ZM82.3385 58.591L83.7537 57.1777L82.3404 55.7625L80.9253 57.1758L82.3385 58.591ZM83.0461 57.8843L82.3395 57.1767L80.9243 58.59L81.6309 59.2976L83.0461 57.8843ZM607.012 582.558L83.0461 57.8843L81.6309 59.2976L605.597 583.971L607.012 582.558ZM607.719 583.265L607.012 582.558L605.597 583.971L606.304 584.678L607.719 583.265ZM607.72 581.851L606.305 583.264L607.718 584.679L609.133 583.266L607.72 581.851ZM607.012 582.558L607.719 583.265L609.134 581.852L608.427 581.144L607.012 582.558ZM83.0461 57.8843L607.012 582.558L608.427 581.144L84.4613 56.4711L83.0461 57.8843ZM67.4907 73.4416L66.7841 72.734L65.3689 74.1473L66.0755 74.8549L67.4907 73.4416ZM591.457 598.115L67.4907 73.4416L66.0755 74.8549L590.042 599.528L591.457 598.115ZM592.163 598.822L591.457 598.115L590.042 599.528L590.748 600.236L592.163 598.822ZM590.747 601.65L592.162 600.237L590.749 598.821L589.334 600.235L590.747 601.65ZM588.626 600.941L589.333 601.649L590.748 600.236L590.042 599.528L588.626 600.941ZM64.6604 76.2682L588.626 600.941L590.042 599.528L66.0755 74.8549L64.6604 76.2682ZM63.9537 75.5606L64.6604 76.2682L66.0755 74.8549L65.3689 74.1473L63.9537 75.5606ZM65.3699 72.7331L63.9547 74.1464L65.368 75.5615L66.7831 74.1483L65.3699 72.7331ZM48.3984 91.1179L49.105 91.8255L50.5201 90.4122L49.8135 89.7046L48.3984 91.1179ZM48.3974 92.5321L49.8126 91.1188L48.3993 89.7037L46.9841 91.1169L48.3974 92.5321ZM49.105 91.8254L48.3983 91.1179L46.9832 92.5311L47.6898 93.2387L49.105 91.8254ZM573.071 616.499L49.105 91.8255L47.6898 93.2387L571.656 617.912L573.071 616.499ZM573.778 617.206L573.071 616.499L571.656 617.912L572.363 618.619L573.778 617.206ZM573.779 615.792L572.363 617.205L573.777 618.62L575.192 617.207L573.779 615.792ZM573.071 616.499L573.778 617.206L575.193 615.793L574.486 615.085L573.071 616.499ZM49.105 91.8255L573.071 616.499L574.486 615.085L50.5201 90.4122L49.105 91.8255ZM33.5496 107.383L32.843 106.675L31.4278 108.088L32.1344 108.796L33.5496 107.383ZM557.516 632.056L33.5496 107.383L32.1344 108.796L556.101 633.469L557.516 632.056ZM558.222 632.764L557.516 632.056L556.101 633.469L556.807 634.177L558.222 632.764ZM556.806 635.591L558.221 634.178L556.808 632.763L555.393 634.176L556.806 635.591ZM554.685 634.882L555.392 635.59L556.807 634.177L556.101 633.469L554.685 634.882ZM30.7193 110.209L554.685 634.882L556.101 633.469L32.1344 108.796L30.7193 110.209ZM30.0126 109.502L30.7193 110.209L32.1344 108.796L31.4278 108.088L30.0126 109.502ZM31.4287 106.674L30.0136 108.087L31.4268 109.503L32.842 108.089L31.4287 106.674ZM14.4572 125.059L15.1639 125.767L16.579 124.353L15.8724 123.646L14.4572 125.059ZM14.4563 126.473L15.8714 125.06L14.4582 123.645L13.043 125.058L14.4563 126.473ZM15.1639 125.767L14.4572 125.059L13.0421 126.472L13.7487 127.18L15.1639 125.767ZM539.13 650.44L15.1639 125.767L13.7487 127.18L537.715 651.853L539.13 650.44ZM539.837 651.147L539.13 650.44L537.715 651.853L538.421 652.561L539.837 651.147ZM539.838 649.733L538.422 651.146L539.836 652.562L541.251 651.148L539.838 649.733ZM539.13 650.44L539.837 651.147L541.252 649.734L540.545 649.027L539.13 650.44ZM15.1639 125.767L539.13 650.44L540.545 649.027L16.579 124.353L15.1639 125.767ZM-0.391433 141.324L-1.09807 140.616L-2.51323 142.029L-1.8066 142.737L-0.391433 141.324ZM523.575 665.997L-0.391431 141.324L-1.8066 142.737L522.16 667.41L523.575 665.997ZM524.281 666.704L523.575 665.997L522.16 667.41L522.866 668.118L524.281 666.704ZM522.865 669.532L524.28 668.119L522.867 666.703L521.452 668.117L522.865 669.532ZM520.744 668.823L521.451 669.531L522.866 668.118L522.16 667.41L520.744 668.823ZM-3.22177 144.15L520.744 668.823L522.16 667.41L-1.8066 142.737L-3.22177 144.15ZM-3.9284 143.443L-3.22176 144.15L-1.8066 142.737L-2.51323 142.029L-3.9284 143.443ZM-2.51228 140.615L-3.92745 142.028L-2.51418 143.444L-1.09901 142.03L-2.51228 140.615ZM-19.4839 159L-18.7773 159.708L-17.3621 158.294L-18.0687 157.587L-19.4839 159ZM-19.4849 160.414L-18.0697 159.001L-19.4829 157.586L-20.8981 158.999L-19.4849 160.414ZM-18.7773 159.708L-19.4839 159L-20.8991 160.413L-20.1924 161.121L-18.7773 159.708ZM505.189 684.381L-18.7773 159.708L-20.1924 161.121L503.774 685.794L505.189 684.381ZM505.895 685.088L505.189 684.381L503.774 685.794L504.48 686.502L505.895 685.088ZM505.896 683.674L504.481 685.088L505.895 686.503L507.31 685.089L505.896 683.674ZM505.189 684.381L505.895 685.088L507.311 683.675L506.604 682.968L505.189 684.381ZM-18.7773 159.708L505.189 684.381L506.604 682.968L-17.3621 158.294L-18.7773 159.708ZM-34.3327 175.265L-35.0393 174.557L-36.4545 175.971L-35.7478 176.678L-34.3327 175.265ZM489.633 699.938L-34.3327 175.265L-35.7478 176.678L488.218 701.351L489.633 699.938ZM490.34 700.646L489.633 699.938L488.218 701.351L488.925 702.059L490.34 700.646ZM488.924 703.473L490.339 702.06L488.926 700.645L487.511 702.058L488.924 703.473ZM486.803 702.765L487.51 703.472L488.925 702.059L488.218 701.351L486.803 702.765ZM-37.163 178.092L486.803 702.765L488.218 701.352L-35.7478 176.678L-37.163 178.092ZM-37.8696 177.384L-37.163 178.092L-35.7478 176.678L-36.4545 175.971L-37.8696 177.384ZM-36.4535 174.556L-37.8687 175.97L-36.4554 177.385L-35.0402 175.972L-36.4535 174.556ZM-53.425 192.941L-52.7184 193.649L-51.3032 192.236L-52.0099 191.528L-53.425 192.941ZM-53.426 194.355L-52.0108 192.942L-53.4241 191.527L-54.8392 192.94L-53.426 194.355ZM-52.7184 193.649L-53.425 192.941L-54.8402 194.355L-54.1336 195.062L-52.7184 193.649ZM471.248 718.322L-52.7184 193.649L-54.1336 195.062L469.833 719.735L471.248 718.322ZM471.954 719.03L471.248 718.322L469.833 719.735L470.539 720.443L471.954 719.03ZM471.955 717.615L470.54 719.029L471.953 720.444L473.369 719.031L471.955 717.615ZM471.248 718.322L471.954 719.03L473.369 717.616L472.663 716.909L471.248 718.322ZM-52.7184 193.649L471.248 718.322L472.663 716.909L-51.3032 192.236L-52.7184 193.649ZM-68.2738 209.206L-68.9804 208.499L-70.3956 209.912L-69.689 210.619L-68.2738 209.206ZM455.692 733.879L-68.2738 209.206L-69.689 210.619L454.277 735.293L455.692 733.879ZM456.399 734.587L455.692 733.879L454.277 735.293L454.984 736L456.399 734.587ZM454.983 737.414L456.398 736.001L454.985 734.586L453.57 735.999L454.983 737.414ZM452.862 736.706L453.569 737.413L454.984 736L454.277 735.293L452.862 736.706ZM-71.1041 212.033L452.862 736.706L454.277 735.293L-69.689 210.619L-71.1041 212.033ZM-71.8108 211.325L-71.1041 212.033L-69.689 210.619L-70.3956 209.912L-71.8108 211.325ZM-70.3946 208.498L-71.8098 209.911L-70.3965 211.326L-68.9814 209.913L-70.3946 208.498ZM-87.3661 226.882L-86.6595 227.59L-85.2444 226.177L-85.951 225.469L-87.3661 226.882ZM-87.3671 228.297L-85.9519 226.883L-87.3652 225.468L-88.7804 226.881L-87.3671 228.297ZM-86.6595 227.59L-87.3662 226.882L-88.7813 228.296L-88.0747 229.003L-86.6595 227.59ZM437.307 752.263L-86.6595 227.59L-88.0747 229.003L435.891 753.676L437.307 752.263ZM438.013 752.971L437.307 752.263L435.891 753.676L436.598 754.384L438.013 752.971ZM438.014 751.557L436.599 752.97L438.012 754.385L439.427 752.972L438.014 751.557ZM437.307 752.263L438.013 752.971L439.428 751.557L438.722 750.85L437.307 752.263ZM-86.6595 227.59L437.307 752.263L438.722 750.85L-85.2444 226.177L-86.6595 227.59ZM-102.215 243.147L-102.922 242.44L-104.337 243.853L-103.63 244.561L-102.215 243.147ZM421.751 767.82L-102.215 243.147L-103.63 244.561L420.336 769.234L421.751 767.82ZM422.458 768.528L421.751 767.82L420.336 769.234L421.043 769.941L422.458 768.528ZM421.042 771.356L422.457 769.942L421.044 768.527L419.628 769.94L421.042 771.356ZM418.921 770.647L419.627 771.355L421.043 769.941L420.336 769.234L418.921 770.647ZM-105.045 245.974L418.921 770.647L420.336 769.234L-103.63 244.561L-105.045 245.974ZM-105.752 245.266L-105.045 245.974L-103.63 244.561L-104.337 243.853L-105.752 245.266ZM-104.336 242.439L-105.751 243.852L-104.338 245.267L-102.922 243.854L-104.336 242.439ZM-121.307 260.823L-120.601 261.531L-119.185 260.118L-119.892 259.41L-121.307 260.823ZM-121.308 262.237L-119.893 260.824L-121.306 259.409L-122.721 260.822L-121.308 262.237ZM-120.601 261.531L-121.307 260.823L-122.722 262.237L-122.016 262.944L-120.601 261.531ZM403.366 786.204L-120.601 261.531L-122.016 262.944L401.95 787.617L403.366 786.204ZM404.072 786.912L403.366 786.204L401.95 787.617L402.657 788.325L404.072 786.912ZM404.073 785.497L402.658 786.911L404.071 788.326L405.486 786.913L404.073 785.497ZM403.366 786.204L404.072 786.912L405.487 785.498L404.781 784.791L403.366 786.204ZM-120.601 261.531L403.366 786.204L404.781 784.791L-119.185 260.118L-120.601 261.531ZM-136.156 277.088L-136.863 276.381L-138.278 277.794L-137.571 278.502L-136.156 277.088ZM387.81 801.762L-136.156 277.088L-137.571 278.502L386.395 803.175L387.81 801.762ZM388.517 802.469L387.81 801.762L386.395 803.175L387.102 803.882L388.517 802.469ZM387.101 805.297L388.516 803.883L387.102 802.468L385.687 803.881L387.101 805.297ZM384.98 804.588L385.686 805.296L387.102 803.882L386.395 803.175L384.98 804.588ZM-138.986 279.915L384.98 804.588L386.395 803.175L-137.571 278.502L-138.986 279.915ZM-139.693 279.207L-138.986 279.915L-137.571 278.502L-138.278 277.794L-139.693 279.207ZM-138.277 276.38L-139.692 277.793L-138.279 279.208L-136.864 277.795L-138.277 276.38ZM-155.248 294.765L-154.542 295.472L-153.127 294.059L-153.833 293.351L-155.248 294.765ZM-155.249 296.179L-153.834 294.766L-155.247 293.35L-156.663 294.764L-155.249 296.179ZM-154.542 295.472L-155.248 294.765L-156.664 296.178L-155.957 296.885L-154.542 295.472ZM369.424 820.145L-154.542 295.472L-155.957 296.885L368.009 821.559L369.424 820.145ZM370.131 820.853L369.424 820.145L368.009 821.559L368.716 822.266L370.131 820.853ZM370.132 819.439L368.717 820.852L370.13 822.267L371.545 820.854L370.132 819.439ZM369.424 820.145L370.131 820.853L371.546 819.44L370.839 818.732L369.424 820.145ZM-154.542 295.472L369.424 820.145L370.84 818.732L-153.127 294.059L-154.542 295.472ZM-170.097 311.03L-170.804 310.322L-172.219 311.735L-171.512 312.443L-170.097 311.03ZM353.869 835.703L-170.097 311.03L-171.512 312.443L352.454 837.116L353.869 835.703ZM354.576 836.41L353.869 835.703L352.454 837.116L353.16 837.824L354.576 836.41ZM353.159 839.238L354.575 837.824L353.161 836.409L351.746 837.823L353.159 839.238ZM351.039 838.529L351.745 839.237L353.16 837.824L352.454 837.116L351.039 838.529ZM-172.927 313.856L351.039 838.529L352.454 837.116L-171.512 312.443L-172.927 313.856ZM-173.634 313.148L-172.927 313.856L-171.512 312.443L-172.219 311.735L-173.634 313.148ZM-172.218 310.321L-173.633 311.734L-172.22 313.149L-170.805 311.736L-172.218 310.321ZM-189.19 328.706L-188.483 329.413L-187.068 328L-187.774 327.292L-189.19 328.706ZM-189.19 330.12L-187.775 328.707L-189.189 327.292L-190.604 328.705L-189.19 330.12ZM-188.483 329.413L-189.19 328.706L-190.605 330.119L-189.898 330.827L-188.483 329.413ZM335.483 854.087L-188.483 329.413L-189.898 330.827L334.068 855.5L335.483 854.087ZM336.19 854.794L335.483 854.087L334.068 855.5L334.775 856.207L336.19 854.794ZM336.191 853.38L334.776 854.793L336.189 856.208L337.604 854.795L336.191 853.38ZM335.483 854.087L336.19 854.794L337.605 853.381L336.898 852.673L335.483 854.087ZM-188.483 329.413L335.483 854.087L336.898 852.673L-187.068 328L-188.483 329.413Z" fill="black"/>
</g>
<path fill-rule="evenodd" clip-rule="evenodd" d="M545.004 162.61C565.182 167.207 588.457 158.8 599.129 141.198C603.92 133.295 607.075 125.54 608.674 117.926C630.031 130.269 638.203 147.594 635.506 169.288C633.278 187.21 624.051 206.814 608.924 229.648C594.957 250.732 568.908 276.419 554.169 283.373C549.764 285.451 544.68 287.25 538.904 288.851C530.985 291.046 508.007 295.507 509.58 295.141C506.716 295.807 504.497 296.539 499.566 298.332C497.128 299.218 496.045 299.602 494.687 300.05L495.313 301.95C496.697 301.493 497.793 301.104 500.249 300.211C505.104 298.446 507.273 297.731 510.033 297.089C508.391 297.471 531.428 292.998 539.438 290.778C545.316 289.149 550.504 287.313 555.022 285.182C570.141 278.049 596.44 252.115 610.592 230.752C625.875 207.682 635.215 187.837 637.49 169.535C640.311 146.847 631.58 128.621 609.073 115.85C611.719 100.596 608.108 85.9079 598.892 71.7233C587.452 54.1159 568.099 38.0458 541.301 21.857C529.933 14.9896 521.824 10.5952 501.772 0.11377L500.846 1.88622C520.86 12.3483 528.947 16.7302 540.267 23.5689C566.829 39.615 585.975 55.5134 597.215 72.8129C606.017 86.3598 609.552 100.314 607.216 114.825C606.863 114.636 606.506 114.447 606.146 114.26C598.206 110.133 579.491 105.49 563.574 104.236C542.716 102.594 528.043 106.326 523.706 116.761C513.893 140.373 523.648 157.746 545.004 162.61ZM563.417 106.23C579.086 107.464 597.547 112.044 605.224 116.035C605.771 116.32 606.311 116.607 606.844 116.898C605.334 124.492 602.221 132.24 597.418 140.162C587.218 156.987 564.825 165.074 545.448 160.66C525.269 156.064 516.229 139.964 525.553 117.529C529.433 108.192 543.357 104.65 563.417 106.23Z" fill="black"/>
<circle cx="486" cy="564" r="114" fill="#16892D"/>
</svg>
