<svg width="699" height="712" viewBox="0 0 699 712" fill="none" xmlns="http://www.w3.org/2000/svg">
<mask id="mask0_33_939" style="mask-type:luminance" maskUnits="userSpaceOnUse" x="170" y="0" width="400" height="400">
<circle cx="370" cy="200" r="200" fill="white"/>
</mask>
<g mask="url(#mask0_33_939)">
<path d="M270.018 -207.501L270.725 -208.207L270.019 -208.915L269.311 -208.208L270.018 -207.501ZM270.724 -206.793L271.432 -207.5L270.724 -206.793ZM268.602 -206.087L267.896 -206.795L267.188 -206.088L267.895 -205.381L268.602 -206.087ZM269.309 -205.38L270.017 -206.086L270.017 -206.086L269.309 -205.38ZM793.275 319.294L793.983 318.587L793.275 319.294ZM793.982 320.001L793.274 320.708L793.981 321.415L794.688 320.709L793.982 320.001ZM795.397 318.588L796.104 319.295L796.811 318.589L796.105 317.881L795.397 318.588ZM794.69 317.88L793.983 318.587L794.69 317.88ZM253.047 -190.53L253.755 -191.237L253.048 -191.944L252.34 -191.238L253.047 -190.53ZM253.754 -189.822L254.461 -190.529L254.461 -190.529L253.754 -189.822ZM251.632 -189.117L250.925 -189.824L250.218 -189.118L250.924 -188.41L251.632 -189.117ZM252.338 -188.409L251.631 -187.702L251.631 -187.702L252.338 -188.409ZM776.305 336.264L775.597 336.971L776.305 336.264ZM777.011 336.972L776.304 337.678L777.01 338.386L777.718 337.679L777.011 336.972ZM778.426 335.558L779.133 336.266L779.841 335.559L779.134 334.852L778.426 335.558ZM777.72 334.851L778.427 334.144L777.72 334.851ZM236.783 -172.852L236.075 -172.145L236.075 -172.145L236.783 -172.852ZM236.076 -173.559L236.784 -174.266L236.077 -174.974L235.37 -174.267L236.076 -173.559ZM760.749 351.821L761.457 351.115L760.749 351.821ZM761.456 352.529L762.162 353.237L762.87 352.53L762.163 351.822L761.456 352.529ZM760.041 353.942L759.333 354.649L760.04 355.356L760.747 354.65L760.041 353.942ZM759.334 353.235L760.042 352.528L759.334 353.235ZM235.368 -171.439L234.66 -170.732L234.66 -170.732L235.368 -171.439ZM234.661 -172.146L233.955 -172.854L233.247 -172.147L233.954 -171.439L234.661 -172.146ZM219.106 -156.589L219.813 -157.295L219.107 -158.003L218.399 -157.296L219.106 -156.589ZM219.812 -155.881L220.52 -156.588L220.52 -156.588L219.812 -155.881ZM217.691 -155.176L216.984 -155.883L216.276 -155.177L216.983 -154.469L217.691 -155.176ZM218.397 -154.468L219.105 -155.175L219.105 -155.175L218.397 -154.468ZM742.363 370.205L741.656 370.912L742.363 370.205ZM743.07 370.913L742.362 371.619L743.069 372.327L743.777 371.62L743.07 370.913ZM744.485 369.5L745.192 370.207L745.899 369.501L745.193 368.793L744.485 369.5ZM743.779 368.792L743.071 369.499L743.779 368.792ZM202.842 -138.911L203.55 -139.617L203.55 -139.617L202.842 -138.911ZM202.135 -139.618L202.843 -140.325L202.136 -141.032L201.429 -140.326L202.135 -139.618ZM726.808 385.763L726.1 386.469L726.808 385.763ZM727.515 386.47L728.221 387.178L728.929 386.471L728.222 385.763L727.515 386.47ZM726.1 387.883L725.392 388.59L726.099 389.298L726.806 388.591L726.1 387.883ZM725.393 387.176L724.685 387.882L725.393 387.176ZM201.427 -137.497L202.134 -138.204L202.134 -138.204L201.427 -137.497ZM200.72 -138.205L200.014 -138.913L199.306 -138.206L200.013 -137.498L200.72 -138.205ZM185.165 -122.648L185.872 -123.354L185.166 -124.062L184.458 -123.355L185.165 -122.648ZM185.871 -121.94L186.579 -122.647L186.579 -122.647L185.871 -121.94ZM183.75 -121.234L183.043 -121.942L182.335 -121.235L183.042 -120.528L183.75 -121.234ZM184.456 -120.527L185.164 -121.233L185.164 -121.233L184.456 -120.527ZM708.422 404.146L707.715 404.853L708.422 404.146ZM709.129 404.854L708.421 405.561L709.128 406.268L709.836 405.562L709.129 404.854ZM710.544 403.441L711.251 404.148L711.958 403.442L711.252 402.734L710.544 403.441ZM709.837 402.733L709.13 403.44L709.837 402.733ZM168.901 -104.97L169.608 -105.676L169.608 -105.676L168.901 -104.97ZM168.194 -105.677L168.902 -106.384L168.195 -107.091L167.488 -106.385L168.194 -105.677ZM692.867 419.704L692.159 420.41L692.867 419.704ZM693.574 420.411L694.28 421.119L694.988 420.412L694.281 419.705L693.574 420.411ZM692.158 421.825L691.451 422.531L692.157 423.239L692.865 422.532L692.158 421.825ZM691.452 421.117L690.744 421.824L691.452 421.117ZM167.486 -103.556L168.193 -104.263L168.193 -104.263L167.486 -103.556ZM166.779 -104.264L166.072 -104.971L165.365 -104.265L166.071 -103.557L166.779 -104.264ZM151.224 -88.7066L151.931 -89.4132L151.225 -90.1208L150.517 -89.4142L151.224 -88.7066ZM151.93 -87.999L152.638 -88.7056L152.638 -88.7056L151.93 -87.999ZM149.808 -87.2933L149.102 -88.0009L148.394 -87.2943L149.101 -86.5867L149.808 -87.2933ZM150.515 -86.5857L151.223 -87.2924L151.223 -87.2924L150.515 -86.5857ZM674.481 438.087L673.774 438.794L674.481 438.087ZM675.188 438.795L674.48 439.502L675.187 440.209L675.894 439.503L675.188 438.795ZM676.603 437.382L677.31 438.089L678.017 437.383L677.311 436.675L676.603 437.382ZM675.896 436.674L675.189 437.381L675.896 436.674ZM134.96 -71.0284L135.667 -71.7351L135.667 -71.7351L134.96 -71.0284ZM134.253 -71.736L134.961 -72.4426L134.254 -73.1502L133.546 -72.4436L134.253 -71.736ZM658.926 453.645L658.218 454.351L658.926 453.645ZM659.632 454.352L660.339 455.06L661.047 454.353L660.34 453.646L659.632 454.352ZM658.217 455.766L657.51 456.472L658.216 457.18L658.924 456.473L658.217 455.766ZM657.511 455.058L656.803 455.765L657.511 455.058ZM133.545 -69.6152L134.252 -70.3218L134.252 -70.3218L133.545 -69.6152ZM132.838 -70.3228L132.131 -71.0303L131.424 -70.3237L132.13 -69.6161L132.838 -70.3228ZM117.282 -54.7654L117.99 -55.4721L117.283 -56.1797L116.576 -55.473L117.282 -54.7654ZM117.989 -54.0579L118.697 -54.7645L118.697 -54.7645L117.989 -54.0579ZM115.867 -53.3522L115.161 -54.0598L114.453 -53.3531L115.16 -52.6456L115.867 -53.3522ZM116.574 -52.6446L117.282 -53.3512L117.282 -53.3512L116.574 -52.6446ZM640.54 472.029L639.832 472.735L640.54 472.029ZM641.247 472.736L640.539 473.443L641.246 474.15L641.953 473.444L641.247 472.736ZM642.662 471.323L643.369 472.031L644.076 471.324L643.369 470.616L642.662 471.323ZM641.955 470.615L641.248 471.322L641.955 470.615ZM101.019 -37.0873L101.726 -37.7939L101.726 -37.7939L101.019 -37.0873ZM100.312 -37.7949L101.02 -38.5015L100.313 -39.2091L99.6053 -38.5025L100.312 -37.7949ZM624.985 487.586L624.277 488.293L624.985 487.586ZM625.691 488.293L626.398 489.001L627.106 488.294L626.399 487.587L625.691 488.293ZM624.276 489.707L623.569 490.413L624.275 491.121L624.983 490.414L624.276 489.707ZM623.57 488.999L622.862 489.706L623.57 488.999ZM99.6034 -35.674L100.311 -36.3807L100.311 -36.3807L99.6034 -35.674ZM98.8968 -36.3816L98.1901 -37.0892L97.4825 -36.3826L98.1892 -35.675L98.8968 -36.3816ZM83.3414 -20.8243L84.0489 -21.531L83.3423 -22.2385L82.6347 -21.5319L83.3414 -20.8243ZM84.048 -20.1167L84.7556 -20.8234L84.7556 -20.8234L84.048 -20.1167ZM81.9262 -19.4111L81.2196 -20.1186L80.512 -19.412L81.2186 -18.7044L81.9262 -19.4111ZM82.6328 -18.7035L83.3404 -19.4101L83.3404 -19.4101L82.6328 -18.7035ZM606.599 505.97L605.891 506.676L606.599 505.97ZM607.306 506.677L606.598 507.384L607.305 508.092L608.012 507.385L607.306 506.677ZM608.721 505.264L609.427 505.972L610.135 505.265L609.428 504.557L608.721 505.264ZM608.014 504.556L607.307 505.263L608.014 504.556ZM67.0774 -3.14618L67.785 -3.85281L67.785 -3.85281L67.0774 -3.14618ZM66.3708 -3.85376L67.0784 -4.56039L66.3718 -5.26797L65.6642 -4.56134L66.3708 -3.85376ZM591.044 521.527L590.336 522.234L591.044 521.527ZM591.75 522.235L592.457 522.942L593.164 522.236L592.458 521.528L591.75 522.235ZM590.335 523.648L589.627 524.355L590.334 525.062L591.042 524.355L590.335 523.648ZM589.628 522.94L588.921 523.647L589.628 522.94ZM65.6623 -1.73292L66.3699 -2.43955L66.3699 -2.43955L65.6623 -1.73292ZM64.9556 -2.4405L64.249 -3.14808L63.5414 -2.44145L64.2481 -1.73387L64.9556 -2.4405ZM49.4002 13.1168L50.1078 12.4102L49.4012 11.7026L48.6936 12.4092L49.4002 13.1168ZM50.1069 13.8244L50.8145 13.1178L50.8145 13.1178L50.1069 13.8244ZM47.9851 14.5301L47.2784 13.8225L46.5709 14.5291L47.2775 15.2367L47.9851 14.5301ZM48.6917 15.2376L49.3993 14.531L49.3993 14.531L48.6917 15.2376ZM572.658 539.911L571.95 540.617L572.658 539.911ZM573.364 540.618L572.657 541.325L573.364 542.033L574.071 541.326L573.364 540.618ZM574.78 539.205L575.486 539.913L576.194 539.206L575.487 538.499L574.78 539.205ZM574.073 538.498L573.365 539.204L574.073 538.498ZM33.1363 30.7949L33.8439 30.0883L33.8439 30.0883L33.1363 30.7949ZM32.4297 30.0874L33.1373 29.3807L32.4306 28.6732L31.723 29.3798L32.4297 30.0874ZM557.102 555.468L556.395 556.175L557.102 555.468ZM557.809 556.176L558.516 556.883L559.223 556.177L558.517 555.469L557.809 556.176ZM556.394 557.589L555.686 558.296L556.393 559.003L557.101 558.297L556.394 557.589ZM555.687 556.881L554.98 557.588L555.687 556.881ZM31.7211 32.2082L32.4287 31.5016L32.4287 31.5016L31.7211 32.2082ZM31.0145 31.5006L30.3079 30.793L29.6003 31.4997L30.3069 32.2073L31.0145 31.5006ZM15.4591 47.0579L16.1667 46.3513L15.4601 45.6437L14.7525 46.3503L15.4591 47.0579ZM16.1658 47.7655L16.8733 47.0589L16.8733 47.0589L16.1658 47.7655ZM14.044 48.4712L13.3373 47.7636L12.6297 48.4702L13.3364 49.1778L14.044 48.4712ZM14.7506 49.1788L15.4582 48.4721L15.4582 48.4721L14.7506 49.1788ZM538.717 573.852L538.009 574.559L538.717 573.852ZM539.423 574.56L538.716 575.266L539.422 575.974L540.13 575.267L539.423 574.56ZM540.838 573.146L541.545 573.854L542.253 573.147L541.546 572.44L540.838 573.146ZM540.132 572.439L539.424 573.145L540.132 572.439ZM-0.804812 64.7361L-0.0972286 64.0294L-0.0972307 64.0294L-0.804812 64.7361ZM-1.51144 64.0285L-0.803863 63.3219L-1.51049 62.6143L-2.21808 63.3209L-1.51144 64.0285ZM523.161 589.409L522.454 590.116L523.161 589.409ZM523.868 590.117L524.575 590.824L525.282 590.118L524.576 589.41L523.868 590.117ZM522.453 591.53L521.745 592.237L522.452 592.944L523.159 592.238L522.453 591.53ZM521.746 590.823L521.039 591.529L521.746 590.823ZM-2.21998 66.1493L-1.5124 65.4427L-1.5124 65.4427L-2.21998 66.1493ZM-2.92661 65.4417L-3.63324 64.7342L-4.34083 65.4408L-3.63419 66.1484L-2.92661 65.4417ZM-18.482 80.9991L-17.7744 80.2924L-18.4811 79.5848L-19.1886 80.2915L-18.482 80.9991ZM-17.7754 81.7066L-17.0678 81L-17.0678 81L-17.7754 81.7066ZM-19.8972 82.4123L-20.6038 81.7047L-21.3114 82.4114L-20.6048 83.1189L-19.8972 82.4123ZM-19.1905 83.1199L-18.483 82.4133L-18.483 82.4133L-19.1905 83.1199ZM504.776 607.793L504.068 608.5L504.776 607.793ZM505.482 608.501L504.775 609.207L505.481 609.915L506.189 609.208L505.482 608.501ZM506.897 607.087L507.604 607.795L508.312 607.088L507.605 606.381L506.897 607.087ZM506.191 606.38L505.483 607.086L506.191 606.38ZM269.31 -206.794L270.017 -206.086L271.432 -207.5L270.725 -208.207L269.31 -206.794ZM269.309 -205.38L270.724 -206.793L269.311 -208.208L267.896 -206.795L269.309 -205.38ZM270.017 -206.086L269.31 -206.794L267.895 -205.381L268.601 -204.673L270.017 -206.086ZM793.983 318.587L270.017 -206.086L268.601 -204.673L792.568 320L793.983 318.587ZM794.689 319.295L793.983 318.587L792.568 320L793.274 320.708L794.689 319.295ZM794.69 317.88L793.275 319.294L794.688 320.709L796.104 319.295L794.69 317.88ZM793.983 318.587L794.689 319.295L796.105 317.881L795.398 317.174L793.983 318.587ZM270.017 -206.086L793.983 318.587L795.398 317.174L271.432 -207.5L270.017 -206.086ZM252.339 -189.823L253.046 -189.116L254.461 -190.529L253.755 -191.237L252.339 -189.823ZM252.338 -188.409L253.754 -189.822L252.34 -191.238L250.925 -189.824L252.338 -188.409ZM253.046 -189.116L252.339 -189.823L250.924 -188.41L251.631 -187.702L253.046 -189.116ZM777.012 335.557L253.046 -189.116L251.631 -187.702L775.597 336.971L777.012 335.557ZM777.719 336.265L777.012 335.557L775.597 336.971L776.304 337.678L777.719 336.265ZM777.72 334.851L776.305 336.264L777.718 337.679L779.133 336.266L777.72 334.851ZM777.012 335.557L777.719 336.265L779.134 334.852L778.427 334.144L777.012 335.557ZM253.046 -189.116L777.012 335.557L778.427 334.144L254.461 -190.529L253.046 -189.116ZM237.491 -173.558L236.784 -174.266L235.369 -172.853L236.075 -172.145L237.491 -173.558ZM761.457 351.115L237.491 -173.558L236.075 -172.145L760.042 352.528L761.457 351.115ZM762.163 351.822L761.457 351.115L760.042 352.528L760.748 353.236L762.163 351.822ZM760.747 354.65L762.162 353.237L760.749 351.821L759.334 353.235L760.747 354.65ZM758.626 353.941L759.333 354.649L760.748 353.236L760.042 352.528L758.626 353.941ZM234.66 -170.732L758.626 353.941L760.042 352.528L236.075 -172.145L234.66 -170.732ZM233.954 -171.439L234.66 -170.732L236.075 -172.145L235.369 -172.853L233.954 -171.439ZM235.37 -174.267L233.955 -172.854L235.368 -171.439L236.783 -172.852L235.37 -174.267ZM218.398 -155.882L219.105 -155.175L220.52 -156.588L219.813 -157.295L218.398 -155.882ZM218.397 -154.468L219.812 -155.881L218.399 -157.296L216.984 -155.883L218.397 -154.468ZM219.105 -155.175L218.398 -155.882L216.983 -154.469L217.69 -153.761L219.105 -155.175ZM743.071 369.499L219.105 -155.175L217.69 -153.761L741.656 370.912L743.071 369.499ZM743.778 370.206L743.071 369.499L741.656 370.912L742.362 371.619L743.778 370.206ZM743.779 368.792L742.363 370.205L743.777 371.62L745.192 370.207L743.779 368.792ZM743.071 369.499L743.778 370.206L745.193 368.793L744.486 368.085L743.071 369.499ZM219.105 -155.175L743.071 369.499L744.486 368.085L220.52 -156.588L219.105 -155.175ZM203.55 -139.617L202.843 -140.325L201.428 -138.912L202.134 -138.204L203.55 -139.617ZM727.516 385.056L203.55 -139.617L202.134 -138.204L726.1 386.469L727.516 385.056ZM728.222 385.763L727.516 385.056L726.1 386.469L726.807 387.177L728.222 385.763ZM726.806 388.591L728.221 387.178L726.808 385.763L725.393 387.176L726.806 388.591ZM724.685 387.882L725.392 388.59L726.807 387.177L726.1 386.469L724.685 387.882ZM200.719 -136.791L724.685 387.882L726.1 386.469L202.134 -138.204L200.719 -136.791ZM200.013 -137.498L200.719 -136.791L202.134 -138.204L201.428 -138.912L200.013 -137.498ZM201.429 -140.326L200.014 -138.913L201.427 -137.497L202.842 -138.911L201.429 -140.326ZM184.457 -121.941L185.164 -121.233L186.579 -122.647L185.872 -123.354L184.457 -121.941ZM184.456 -120.527L185.871 -121.94L184.458 -123.355L183.043 -121.942L184.456 -120.527ZM185.164 -121.233L184.457 -121.941L183.042 -120.528L183.749 -119.82L185.164 -121.233ZM709.13 403.44L185.164 -121.233L183.749 -119.82L707.715 404.853L709.13 403.44ZM709.837 404.147L709.13 403.44L707.715 404.853L708.421 405.561L709.837 404.147ZM709.837 402.733L708.422 404.146L709.836 405.562L711.251 404.148L709.837 402.733ZM709.13 403.44L709.837 404.147L711.252 402.734L710.545 402.026L709.13 403.44ZM185.164 -121.233L709.13 403.44L710.545 402.026L186.579 -122.647L185.164 -121.233ZM169.608 -105.676L168.902 -106.384L167.487 -104.971L168.193 -104.263L169.608 -105.676ZM693.575 418.997L169.608 -105.676L168.193 -104.263L692.159 420.41L693.575 418.997ZM694.281 419.705L693.575 418.997L692.159 420.41L692.866 421.118L694.281 419.705ZM692.865 422.532L694.28 421.119L692.867 419.704L691.452 421.117L692.865 422.532ZM690.744 421.824L691.451 422.531L692.866 421.118L692.159 420.41L690.744 421.824ZM166.778 -102.85L690.744 421.824L692.159 420.41L168.193 -104.263L166.778 -102.85ZM166.071 -103.557L166.778 -102.85L168.193 -104.263L167.487 -104.971L166.071 -103.557ZM167.488 -106.385L166.072 -104.971L167.486 -103.556L168.901 -104.97L167.488 -106.385ZM150.516 -87.9999L151.223 -87.2924L152.638 -88.7056L151.931 -89.4132L150.516 -87.9999ZM150.515 -86.5857L151.93 -87.999L150.517 -89.4142L149.102 -88.0009L150.515 -86.5857ZM151.223 -87.2924L150.516 -87.9999L149.101 -86.5867L149.808 -85.8791L151.223 -87.2924ZM675.189 437.381L151.223 -87.2924L149.807 -85.8791L673.774 438.794L675.189 437.381ZM675.895 438.088L675.189 437.381L673.774 438.794L674.48 439.502L675.895 438.088ZM675.896 436.674L674.481 438.087L675.894 439.503L677.31 438.089L675.896 436.674ZM675.189 437.381L675.895 438.088L677.311 436.675L676.604 435.968L675.189 437.381ZM151.223 -87.2924L675.189 437.381L676.604 435.968L152.638 -88.7056L151.223 -87.2924ZM135.667 -71.7351L134.961 -72.4426L133.545 -71.0294L134.252 -70.3218L135.667 -71.7351ZM659.633 452.938L135.667 -71.7351L134.252 -70.3218L658.218 454.351L659.633 452.938ZM660.34 453.646L659.633 452.938L658.218 454.351L658.925 455.059L660.34 453.646ZM658.924 456.473L660.339 455.06L658.926 453.645L657.511 455.058L658.924 456.473ZM656.803 455.765L657.51 456.472L658.925 455.059L658.218 454.351L656.803 455.765ZM132.837 -68.9085L656.803 455.765L658.218 454.351L134.252 -70.3218L132.837 -68.9085ZM132.13 -69.6161L132.837 -68.9085L134.252 -70.3218L133.545 -71.0294L132.13 -69.6161ZM133.546 -72.4436L132.131 -71.0303L133.545 -69.6152L134.96 -71.0284L133.546 -72.4436ZM116.575 -54.0588L117.282 -53.3512L118.697 -54.7645L117.99 -55.4721L116.575 -54.0588ZM116.574 -52.6446L117.989 -54.0579L116.576 -55.473L115.161 -54.0598L116.574 -52.6446ZM117.282 -53.3512L116.575 -54.0588L115.16 -52.6456L115.866 -51.938L117.282 -53.3512ZM641.248 471.322L117.282 -53.3512L115.866 -51.938L639.832 472.735L641.248 471.322ZM641.954 472.03L641.248 471.322L639.832 472.735L640.539 473.443L641.954 472.03ZM641.955 470.615L640.54 472.029L641.953 473.444L643.369 472.031L641.955 470.615ZM641.248 471.322L641.954 472.03L643.369 470.616L642.663 469.909L641.248 471.322ZM117.282 -53.3512L641.248 471.322L642.663 469.909L118.697 -54.7645L117.282 -53.3512ZM101.726 -37.7939L101.02 -38.5015L99.6043 -37.0883L100.311 -36.3807L101.726 -37.7939ZM625.692 486.879L101.726 -37.7939L100.311 -36.3807L624.277 488.293L625.692 486.879ZM626.399 487.587L625.692 486.879L624.277 488.293L624.984 489L626.399 487.587ZM624.983 490.414L626.398 489.001L624.985 487.586L623.57 488.999L624.983 490.414ZM622.862 489.706L623.569 490.413L624.984 489L624.277 488.293L622.862 489.706ZM98.8958 -34.9674L622.862 489.706L624.277 488.293L100.311 -36.3807L98.8958 -34.9674ZM98.1892 -35.675L98.8958 -34.9674L100.311 -36.3807L99.6043 -37.0883L98.1892 -35.675ZM99.6053 -38.5025L98.1901 -37.0892L99.6034 -35.674L101.019 -37.0873L99.6053 -38.5025ZM82.6338 -20.1177L83.3404 -19.4101L84.7556 -20.8234L84.0489 -21.531L82.6338 -20.1177ZM82.6328 -18.7035L84.048 -20.1167L82.6347 -21.5319L81.2196 -20.1186L82.6328 -18.7035ZM83.3404 -19.4101L82.6338 -20.1177L81.2186 -18.7044L81.9253 -17.9969L83.3404 -19.4101ZM607.307 505.263L83.3404 -19.4101L81.9252 -17.9969L605.891 506.676L607.307 505.263ZM608.013 505.971L607.307 505.263L605.891 506.676L606.598 507.384L608.013 505.971ZM608.014 504.556L606.599 505.97L608.012 507.385L609.427 505.972L608.014 504.556ZM607.307 505.263L608.013 505.971L609.428 504.557L608.722 503.85L607.307 505.263ZM83.3404 -19.4101L607.307 505.263L608.722 503.85L84.7556 -20.8234L83.3404 -19.4101ZM67.785 -3.85281L67.0784 -4.56039L65.6632 -3.14713L66.3699 -2.43955L67.785 -3.85281ZM591.751 520.82L67.785 -3.85281L66.3699 -2.43955L590.336 522.234L591.751 520.82ZM592.458 521.528L591.751 520.82L590.336 522.234L591.043 522.941L592.458 521.528ZM591.042 524.355L592.457 522.942L591.044 521.527L589.628 522.94L591.042 524.355ZM588.921 523.647L589.627 524.355L591.043 522.941L590.336 522.234L588.921 523.647ZM64.9547 -1.02629L588.921 523.647L590.336 522.234L66.3699 -2.43955L64.9547 -1.02629ZM64.2481 -1.73387L64.9547 -1.02629L66.3699 -2.43955L65.6632 -3.14713L64.2481 -1.73387ZM65.6642 -4.56134L64.249 -3.14808L65.6623 -1.73292L67.0774 -3.14618L65.6642 -4.56134ZM48.6927 13.8234L49.3993 14.531L50.8145 13.1178L50.1078 12.4102L48.6927 13.8234ZM48.6917 15.2376L50.1069 13.8244L48.6936 12.4092L47.2784 13.8225L48.6917 15.2376ZM49.3993 14.531L48.6927 13.8234L47.2775 15.2367L47.9841 15.9443L49.3993 14.531ZM573.365 539.204L49.3993 14.531L47.9841 15.9443L571.95 540.617L573.365 539.204ZM574.072 539.912L573.365 539.204L571.95 540.617L572.657 541.325L574.072 539.912ZM574.073 538.498L572.658 539.911L574.071 541.326L575.486 539.913L574.073 538.498ZM573.365 539.204L574.072 539.912L575.487 538.499L574.781 537.791L573.365 539.204ZM49.3993 14.531L573.365 539.204L574.781 537.791L50.8145 13.1178L49.3993 14.531ZM33.8439 30.0883L33.1373 29.3807L31.7221 30.794L32.4287 31.5016L33.8439 30.0883ZM557.81 554.762L33.8439 30.0883L32.4287 31.5016L556.395 556.175L557.81 554.762ZM558.517 555.469L557.81 554.762L556.395 556.175L557.101 556.882L558.517 555.469ZM557.101 558.297L558.516 556.883L557.102 555.468L555.687 556.881L557.101 558.297ZM554.98 557.588L555.686 558.296L557.101 556.882L556.395 556.175L554.98 557.588ZM31.0136 32.9148L554.98 557.588L556.395 556.175L32.4287 31.5016L31.0136 32.9148ZM30.3069 32.2073L31.0136 32.9148L32.4287 31.5016L31.7221 30.794L30.3069 32.2073ZM31.723 29.3798L30.3079 30.793L31.7211 32.2082L33.1363 30.7949L31.723 29.3798ZM14.7515 47.7646L15.4582 48.4721L16.8733 47.0589L16.1667 46.3513L14.7515 47.7646ZM14.7506 49.1788L16.1658 47.7655L14.7525 46.3503L13.3373 47.7636L14.7506 49.1788ZM15.4582 48.4721L14.7515 47.7646L13.3364 49.1778L14.043 49.8854L15.4582 48.4721ZM539.424 573.145L15.4582 48.4721L14.043 49.8854L538.009 574.559L539.424 573.145ZM540.131 573.853L539.424 573.145L538.009 574.559L538.716 575.266L540.131 573.853ZM540.132 572.439L538.717 573.852L540.13 575.267L541.545 573.854L540.132 572.439ZM539.424 573.145L540.131 573.853L541.546 572.44L540.839 571.732L539.424 573.145ZM15.4582 48.4721L539.424 573.145L540.839 571.732L16.8733 47.0589L15.4582 48.4721ZM-0.0972307 64.0294L-0.803863 63.3219L-2.21903 64.7351L-1.51239 65.4427L-0.0972307 64.0294ZM523.869 588.703L-0.0972286 64.0294L-1.5124 65.4427L522.454 590.116L523.869 588.703ZM524.576 589.41L523.869 588.703L522.454 590.116L523.16 590.824L524.576 589.41ZM523.159 592.238L524.575 590.824L523.161 589.409L521.746 590.823L523.159 592.238ZM521.039 591.529L521.745 592.237L523.16 590.824L522.454 590.116L521.039 591.529ZM-2.92756 66.856L521.039 591.529L522.454 590.116L-1.5124 65.4427L-2.92756 66.856ZM-3.63419 66.1484L-2.92756 66.856L-1.5124 65.4427L-2.21903 64.7351L-3.63419 66.1484ZM-2.21808 63.3209L-3.63324 64.7342L-2.21998 66.1493L-0.804812 64.7361L-2.21808 63.3209ZM-19.1896 81.7057L-18.483 82.4133L-17.0678 81L-17.7744 80.2924L-19.1896 81.7057ZM-19.1905 83.1199L-17.7754 81.7066L-19.1886 80.2915L-20.6038 81.7047L-19.1905 83.1199ZM-18.483 82.4133L-19.1896 81.7057L-20.6048 83.1189L-19.8981 83.8265L-18.483 82.4133ZM505.483 607.086L-18.483 82.4133L-19.8981 83.8265L504.068 608.5L505.483 607.086ZM506.19 607.794L505.483 607.086L504.068 608.5L504.775 609.207L506.19 607.794ZM506.191 606.38L504.776 607.793L506.189 609.208L507.604 607.795L506.191 606.38ZM505.483 607.086L506.19 607.794L507.605 606.381L506.898 605.673L505.483 607.086ZM-18.483 82.4133L505.483 607.086L506.898 605.673L-17.0678 81L-18.483 82.4133Z" fill="black"/>
</g>
<path fill-rule="evenodd" clip-rule="evenodd" d="M460.169 499.73C472.848 490.814 482.891 486.972 502.735 482.453C518.441 478.877 533.833 479.02 548.314 482.727C545.166 491.23 544.107 500.478 545.851 509.368C549.806 529.525 558.571 546.794 571.659 556.298C580.178 562.484 591.196 564.084 600.141 560.636C609.694 556.953 615.348 548.223 614.768 536.368C614.454 529.952 610.906 523.462 604.755 516.664C601.608 513.187 598.212 510.044 593.423 505.975C593.639 506.158 589.819 502.932 588.969 502.194C577.472 492.21 564.648 485.227 550.994 481.377C558.201 464.108 574.366 450.52 592.594 451.137C632.342 452.484 670.073 476.447 687.594 511.646L689.384 510.755C671.534 474.895 633.139 450.509 592.662 449.139C573.436 448.488 556.5 462.747 549.047 480.85C534.193 477.006 518.397 476.836 502.291 480.503C482.216 485.075 471.946 489.004 459.018 498.094C426.339 521.073 412.65 550.259 416.051 583.827C418.98 612.746 434.604 644.138 459.723 674.982C464.317 680.623 469.466 686.139 476.156 692.744C478.592 695.15 480.576 697.069 484.991 701.309C486.066 702.342 486.515 702.773 487.098 703.333C487.948 704.151 488.771 704.619 490.624 705.486C492.453 706.342 493.339 706.862 493.884 707.552C493.623 707.574 493.269 707.588 492.754 707.602C491.615 707.633 491.16 707.664 490.664 707.793L491.167 709.729C491.452 709.655 491.852 709.627 492.807 709.602C493.946 709.571 494.401 709.539 494.897 709.41C495.956 709.135 496.572 708.285 496.025 707.211C495.231 705.648 494.177 704.941 491.472 703.675C489.82 702.902 489.121 702.504 488.484 701.892C487.901 701.331 487.452 700.9 486.376 699.867C481.968 695.633 479.988 693.718 477.561 691.321C470.918 684.762 465.815 679.296 461.274 673.719C436.381 643.152 420.925 612.098 418.04 583.625C414.713 550.785 428.074 522.298 460.169 499.73ZM572.834 554.68C560.223 545.523 551.681 528.691 547.814 508.983C546.13 500.401 547.181 491.46 550.254 483.246C563.702 487.006 576.331 493.868 587.658 503.704C588.52 504.453 592.354 507.691 592.128 507.499C596.856 511.516 600.196 514.608 603.272 518.006C609.142 524.493 612.483 530.606 612.77 536.466C613.309 547.461 608.168 555.398 599.422 558.77C591.12 561.97 580.813 560.473 572.834 554.68Z" fill="black"/>
<rect y="31" width="238" height="240" rx="24" fill="#16892D"/>
<circle cx="137" cy="534" r="114" fill="#16892D"/>
</svg>
