<svg width="601" height="661" viewBox="0 0 601 661" fill="none" xmlns="http://www.w3.org/2000/svg">
<mask id="mask0_33_988" style="mask-type:luminance" maskUnits="userSpaceOnUse" x="0" y="258" width="400" height="401">
<circle cx="200" cy="458" r="200" fill="white"/>
</mask>
<g mask="url(#mask0_33_988)">
<path d="M100.018 50.4997L100.725 49.7931L100.019 49.0855L99.3109 49.7921L100.018 50.4997ZM100.724 51.2073L101.432 50.5007L100.724 51.2073ZM98.6024 51.913L97.8958 51.2054L97.1882 51.912L97.8948 52.6196L98.6024 51.913ZM99.309 52.6206L100.017 51.9139L100.017 51.9139L99.309 52.6206ZM623.275 577.294L623.983 576.587L623.275 577.294ZM623.982 578.001L623.274 578.708L623.981 579.416L624.688 578.709L623.982 578.001ZM625.397 576.588L626.104 577.296L626.811 576.589L626.105 575.881L625.397 576.588ZM624.69 575.881L623.983 576.587L624.69 575.881ZM83.047 67.4703L83.7546 66.7637L83.0479 66.0561L82.3404 66.7627L83.047 67.4703ZM83.7536 68.1779L84.4612 67.4712L84.4612 67.4712L83.7536 68.1779ZM81.6318 68.8836L80.9252 68.176L80.2176 68.8826L80.9242 69.5902L81.6318 68.8836ZM82.3385 69.5911L81.6309 70.2978L81.6309 70.2978L82.3385 69.5911ZM606.305 594.264L605.597 594.971L606.305 594.264ZM607.011 594.972L606.304 595.679L607.01 596.386L607.718 595.68L607.011 594.972ZM608.426 593.559L609.133 594.266L609.841 593.56L609.134 592.852L608.426 593.559ZM607.72 592.851L608.427 592.144L607.72 592.851ZM66.7831 85.1484L66.0755 85.8551L66.0755 85.8551L66.7831 85.1484ZM66.0764 84.4409L66.784 83.7342L66.0774 83.0266L65.3698 83.7333L66.0764 84.4409ZM590.749 609.822L591.457 609.115L590.749 609.822ZM591.456 610.529L592.162 611.237L592.87 610.53L592.163 609.823L591.456 610.529ZM590.041 611.943L589.333 612.649L590.04 613.357L590.747 612.65L590.041 611.943ZM589.334 611.235L590.042 610.528L589.334 611.235ZM65.3679 86.5617L64.6603 87.2683L64.6603 87.2683L65.3679 86.5617ZM64.6613 85.8541L63.9546 85.1465L63.2471 85.8532L63.9537 86.5607L64.6613 85.8541ZM49.1059 101.411L49.8134 100.705L49.1068 99.9972L48.3992 100.704L49.1059 101.411ZM49.8125 102.119L50.5201 101.412L50.5201 101.412L49.8125 102.119ZM47.6907 102.825L46.9841 102.117L46.2765 102.824L46.9831 103.531L47.6907 102.825ZM48.3973 103.532L49.1049 102.826L49.1049 102.826L48.3973 103.532ZM572.363 628.205L571.656 628.912L572.363 628.205ZM573.07 628.913L572.362 629.62L573.069 630.327L573.777 629.621L573.07 628.913ZM574.485 627.5L575.192 628.207L575.899 627.501L575.193 626.793L574.485 627.5ZM573.779 626.792L573.071 627.499L573.779 626.792ZM32.8419 119.09L33.5495 118.383L33.5495 118.383L32.8419 119.09ZM32.1353 118.382L32.8429 117.675L32.1363 116.968L31.4287 117.674L32.1353 118.382ZM556.808 643.763L556.1 644.469L556.808 643.763ZM557.515 644.47L558.221 645.178L558.929 644.471L558.222 643.764L557.515 644.47ZM556.1 645.884L555.392 646.59L556.099 647.298L556.806 646.591L556.1 645.884ZM555.393 645.176L554.685 645.883L555.393 645.176ZM31.4268 120.503L32.1344 119.796L32.1344 119.796L31.4268 120.503ZM30.7201 119.795L30.0135 119.088L29.3059 119.794L30.0126 120.502L30.7201 119.795ZM15.1647 135.353L15.8723 134.646L15.1657 133.938L14.4581 134.645L15.1647 135.353ZM15.8714 136.06L16.579 135.353L16.579 135.353L15.8714 136.06ZM13.7496 136.766L13.0429 136.058L12.3354 136.765L13.042 137.472L13.7496 136.766ZM14.4562 137.473L15.1638 136.767L15.1638 136.767L14.4562 137.473ZM538.422 662.147L537.715 662.853L538.422 662.147ZM539.129 662.854L538.421 663.561L539.128 664.268L539.836 663.562L539.129 662.854ZM540.544 661.441L541.251 662.149L541.958 661.442L541.252 660.734L540.544 661.441ZM539.837 660.733L539.13 661.44L539.837 660.733ZM-1.09919 153.031L-0.391604 152.324L-0.391606 152.324L-1.09919 153.031ZM-1.80582 152.323L-1.09824 151.616L-1.80487 150.909L-2.51245 151.616L-1.80582 152.323ZM522.867 677.704L522.159 678.411L522.867 677.704ZM523.574 678.411L524.28 679.119L524.988 678.412L524.281 677.705L523.574 678.411ZM522.158 679.825L521.451 680.531L522.157 681.239L522.865 680.532L522.158 679.825ZM521.452 679.117L520.744 679.824L521.452 679.117ZM-2.51435 154.444L-1.80677 153.737L-1.80677 153.737L-2.51435 154.444ZM-3.22099 153.736L-3.92762 153.029L-4.6352 153.735L-3.92857 154.443L-3.22099 153.736ZM-18.7764 169.294L-18.0688 168.587L-18.7754 167.879L-19.483 168.586L-18.7764 169.294ZM-18.0698 170.001L-17.3622 169.295L-17.3622 169.295L-18.0698 170.001ZM-20.1915 170.707L-20.8982 169.999L-21.6058 170.706L-20.8991 171.414L-20.1915 170.707ZM-19.4849 171.415L-18.7773 170.708L-18.7773 170.708L-19.4849 171.415ZM504.481 696.088L503.774 696.794L504.481 696.088ZM505.188 696.795L504.48 697.502L505.187 698.21L505.894 697.503L505.188 696.795ZM506.603 695.382L507.31 696.09L508.017 695.383L507.311 694.675L506.603 695.382ZM505.896 694.674L505.189 695.381L505.896 694.674ZM-35.0403 186.972L-34.3327 186.265L-34.3327 186.265L-35.0403 186.972ZM-35.7469 186.264L-35.0394 185.558L-35.746 184.85L-36.4536 185.557L-35.7469 186.264ZM488.926 711.645L488.218 712.352L488.926 711.645ZM489.632 712.353L490.339 713.06L491.047 712.354L490.34 711.646L489.632 712.353ZM488.217 713.766L487.51 714.473L488.216 715.18L488.924 714.473L488.217 713.766ZM487.511 713.058L486.803 713.765L487.511 713.058ZM-36.4555 188.385L-35.7479 187.678L-35.7479 187.678L-36.4555 188.385ZM-37.1621 187.677L-37.8687 186.97L-38.5763 187.677L-37.8697 188.384L-37.1621 187.677ZM-52.7175 203.235L-52.0099 202.528L-52.7166 201.821L-53.4241 202.527L-52.7175 203.235ZM-52.0109 203.942L-51.3033 203.236L-51.3033 203.236L-52.0109 203.942ZM-54.1327 204.648L-54.8393 203.94L-55.5469 204.647L-54.8403 205.355L-54.1327 204.648ZM-53.426 205.356L-52.7185 204.649L-52.7185 204.649L-53.426 205.356ZM470.54 730.029L469.832 730.735L470.54 730.029ZM471.247 730.736L470.539 731.443L471.246 732.151L471.953 731.444L471.247 730.736ZM472.662 729.323L473.369 730.031L474.076 729.324L473.369 728.617L472.662 729.323ZM471.955 728.616L471.248 729.322L471.955 728.616ZM-68.9814 220.913L-68.2739 220.206L-68.2739 220.206L-68.9814 220.913ZM-69.6881 220.205L-68.9805 219.499L-69.6871 218.791L-70.3947 219.498L-69.6881 220.205ZM454.985 745.586L454.277 746.293L454.985 745.586ZM455.691 746.294L456.398 747.001L457.106 746.295L456.399 745.587L455.691 746.294ZM454.276 747.707L453.569 748.414L454.275 749.121L454.983 748.415L454.276 747.707ZM453.57 746.999L452.862 747.706L453.57 746.999ZM-70.3966 222.326L-69.689 221.62L-69.689 221.62L-70.3966 222.326ZM-71.1032 221.619L-71.8099 220.911L-72.5175 221.618L-71.8108 222.325L-71.1032 221.619ZM-86.6586 237.176L-85.9511 236.469L-86.6577 235.762L-87.3653 236.468L-86.6586 237.176ZM-85.952 237.884L-85.2444 237.177L-85.2444 237.177L-85.952 237.884ZM-88.0738 238.589L-88.7804 237.882L-89.488 238.588L-88.7814 239.296L-88.0738 238.589ZM-87.3672 239.297L-86.6596 238.59L-86.6596 238.59L-87.3672 239.297ZM436.599 763.97L435.891 764.677L436.599 763.97ZM437.306 764.678L436.598 765.384L437.305 766.092L438.012 765.385L437.306 764.678ZM438.721 763.264L439.427 763.972L440.135 763.265L439.428 762.558L438.721 763.264ZM438.014 762.557L437.307 763.263L438.014 762.557ZM-102.923 254.854L-102.215 254.147L-102.215 254.147L-102.923 254.854ZM-103.629 254.146L-102.922 253.44L-103.628 252.732L-104.336 253.439L-103.629 254.146ZM421.044 779.527L420.336 780.234L421.044 779.527ZM421.75 780.235L422.457 780.942L423.164 780.236L422.458 779.528L421.75 780.235ZM420.335 781.648L419.627 782.355L420.334 783.062L421.042 782.356L420.335 781.648ZM419.628 780.941L418.921 781.647L419.628 780.941ZM-104.338 256.267L-103.63 255.561L-103.63 255.561L-104.338 256.267ZM-105.044 255.56L-105.751 254.852L-106.459 255.559L-105.752 256.266L-105.044 255.56ZM-120.6 271.117L-119.892 270.41L-120.599 269.703L-121.306 270.409L-120.6 271.117ZM-119.893 271.825L-119.186 271.118L-119.186 271.118L-119.893 271.825ZM-122.015 272.53L-122.722 271.823L-123.429 272.529L-122.723 273.237L-122.015 272.53ZM-121.308 273.238L-120.601 272.531L-120.601 272.531L-121.308 273.238ZM402.658 797.911L401.95 798.618L402.658 797.911ZM403.364 798.619L402.657 799.325L403.364 800.033L404.071 799.326L403.364 798.619ZM404.78 797.205L405.486 797.913L406.194 797.206L405.487 796.499L404.78 797.205ZM404.073 796.498L403.365 797.204L404.073 796.498ZM-136.864 288.795L-136.156 288.089L-136.156 288.089L-136.864 288.795ZM-137.57 288.088L-136.863 287.381L-137.569 286.673L-138.277 287.38L-137.57 288.088ZM387.102 813.468L386.395 814.175L387.102 813.468ZM387.809 814.176L388.516 814.884L389.223 814.177L388.517 813.469L387.809 814.176ZM386.394 815.589L385.686 816.296L386.393 817.003L387.101 816.297L386.394 815.589ZM385.687 814.882L384.98 815.588L385.687 814.882ZM-138.279 290.208L-137.571 289.502L-137.571 289.502L-138.279 290.208ZM-138.985 289.501L-139.692 288.793L-140.4 289.5L-139.693 290.207L-138.985 289.501ZM-154.541 305.058L-153.833 304.352L-154.54 303.644L-155.248 304.351L-154.541 305.058ZM-153.834 305.766L-153.127 305.059L-153.127 305.059L-153.834 305.766ZM-155.956 306.471L-156.663 305.764L-157.37 306.47L-156.664 307.178L-155.956 306.471ZM-155.249 307.179L-154.542 306.472L-154.542 306.472L-155.249 307.179ZM368.717 831.852L368.009 832.559L368.717 831.852ZM369.423 832.56L368.716 833.266L369.422 833.974L370.13 833.267L369.423 832.56ZM370.838 831.147L371.545 831.854L372.253 831.148L371.546 830.44L370.838 831.147ZM370.132 830.439L369.424 831.146L370.132 830.439ZM-170.805 322.736L-170.097 322.03L-170.097 322.03L-170.805 322.736ZM-171.511 322.029L-170.804 321.322L-171.51 320.615L-172.218 321.321L-171.511 322.029ZM353.161 847.41L352.454 848.116L353.161 847.41ZM353.868 848.117L354.575 848.825L355.282 848.118L354.576 847.41L353.868 848.117ZM352.453 849.53L351.745 850.237L352.452 850.945L353.159 850.238L352.453 849.53ZM351.746 848.823L351.039 849.529L351.746 848.823ZM-172.22 324.15L-171.512 323.443L-171.512 323.443L-172.22 324.15ZM-172.927 323.442L-173.633 322.734L-174.341 323.441L-173.634 324.149L-172.927 323.442ZM-188.482 338.999L-187.774 338.293L-188.481 337.585L-189.189 338.292L-188.482 338.999ZM-187.775 339.707L-187.068 339L-187.068 339L-187.775 339.707ZM-189.897 340.413L-190.604 339.705L-191.311 340.412L-190.605 341.119L-189.897 340.413ZM-189.191 341.12L-188.483 340.414L-188.483 340.414L-189.191 341.12ZM334.776 865.793L334.068 866.5L334.776 865.793ZM335.482 866.501L334.775 867.208L335.481 867.915L336.189 867.209L335.482 866.501ZM336.897 865.088L337.604 865.795L338.312 865.089L337.605 864.381L336.897 865.088ZM336.191 864.38L335.483 865.087L336.191 864.38ZM99.31 51.2064L100.017 51.9139L101.432 50.5007L100.725 49.7931L99.31 51.2064ZM99.309 52.6206L100.724 51.2073L99.3109 49.7921L97.8958 51.2054L99.309 52.6206ZM100.017 51.9139L99.31 51.2064L97.8948 52.6196L98.6014 53.3272L100.017 51.9139ZM623.983 576.587L100.017 51.9139L98.6014 53.3272L622.568 578L623.983 576.587ZM624.689 577.295L623.983 576.587L622.568 578L623.274 578.708L624.689 577.295ZM624.69 575.881L623.275 577.294L624.688 578.709L626.104 577.296L624.69 575.881ZM623.983 576.587L624.689 577.295L626.105 575.881L625.398 575.174L623.983 576.587ZM100.017 51.9139L623.983 576.587L625.398 575.174L101.432 50.5007L100.017 51.9139ZM82.3394 68.1769L83.046 68.8845L84.4612 67.4712L83.7546 66.7637L82.3394 68.1769ZM82.3385 69.5911L83.7536 68.1779L82.3404 66.7627L80.9252 68.176L82.3385 69.5911ZM83.046 68.8845L82.3394 68.1769L80.9242 69.5902L81.6309 70.2978L83.046 68.8845ZM607.012 593.558L83.046 68.8845L81.6309 70.2978L605.597 594.971L607.012 593.558ZM607.719 594.265L607.012 593.558L605.597 594.971L606.304 595.679L607.719 594.265ZM607.72 592.851L606.305 594.264L607.718 595.68L609.133 594.266L607.72 592.851ZM607.012 593.558L607.719 594.265L609.134 592.852L608.427 592.144L607.012 593.558ZM83.046 68.8845L607.012 593.558L608.427 592.144L84.4612 67.4712L83.046 68.8845ZM67.4906 84.4418L66.784 83.7342L65.3688 85.1475L66.0755 85.8551L67.4906 84.4418ZM591.457 609.115L67.4906 84.4418L66.0755 85.8551L590.042 610.528L591.457 609.115ZM592.163 609.823L591.457 609.115L590.042 610.528L590.748 611.236L592.163 609.823ZM590.747 612.65L592.162 611.237L590.749 609.822L589.334 611.235L590.747 612.65ZM588.626 611.942L589.333 612.649L590.748 611.236L590.042 610.528L588.626 611.942ZM64.6603 87.2683L588.626 611.942L590.042 610.528L66.0755 85.8551L64.6603 87.2683ZM63.9537 86.5607L64.6603 87.2683L66.0755 85.8551L65.3688 85.1475L63.9537 86.5607ZM65.3698 83.7333L63.9546 85.1465L65.3679 86.5617L66.7831 85.1484L65.3698 83.7333ZM48.3983 102.118L49.1049 102.826L50.5201 101.412L49.8134 100.705L48.3983 102.118ZM48.3973 103.532L49.8125 102.119L48.3992 100.704L46.9841 102.117L48.3973 103.532ZM49.1049 102.826L48.3983 102.118L46.9831 103.531L47.6898 104.239L49.1049 102.826ZM573.071 627.499L49.1049 102.826L47.6897 104.239L571.656 628.912L573.071 627.499ZM573.778 628.206L573.071 627.499L571.656 628.912L572.362 629.62L573.778 628.206ZM573.779 626.792L572.363 628.205L573.777 629.621L575.192 628.207L573.779 626.792ZM573.071 627.499L573.778 628.206L575.193 626.793L574.486 626.086L573.071 627.499ZM49.1049 102.826L573.071 627.499L574.486 626.086L50.5201 101.412L49.1049 102.826ZM33.5495 118.383L32.8429 117.675L31.4277 119.089L32.1344 119.796L33.5495 118.383ZM557.516 643.056L33.5495 118.383L32.1344 119.796L556.1 644.469L557.516 643.056ZM558.222 643.764L557.516 643.056L556.1 644.469L556.807 645.177L558.222 643.764ZM556.806 646.591L558.221 645.178L556.808 643.763L555.393 645.176L556.806 646.591ZM554.685 645.883L555.392 646.59L556.807 645.177L556.1 644.469L554.685 645.883ZM30.7192 121.209L554.685 645.883L556.1 644.469L32.1344 119.796L30.7192 121.209ZM30.0126 120.502L30.7192 121.209L32.1344 119.796L31.4277 119.089L30.0126 120.502ZM31.4287 117.674L30.0135 119.088L31.4268 120.503L32.8419 119.09L31.4287 117.674ZM14.4572 136.059L15.1638 136.767L16.579 135.353L15.8723 134.646L14.4572 136.059ZM14.4562 137.473L15.8714 136.06L14.4581 134.645L13.0429 136.058L14.4562 137.473ZM15.1638 136.767L14.4572 136.059L13.042 137.472L13.7486 138.18L15.1638 136.767ZM539.13 661.44L15.1638 136.767L13.7486 138.18L537.715 662.853L539.13 661.44ZM539.837 662.148L539.13 661.44L537.715 662.853L538.421 663.561L539.837 662.148ZM539.837 660.733L538.422 662.147L539.836 663.562L541.251 662.149L539.837 660.733ZM539.13 661.44L539.837 662.148L541.252 660.734L540.545 660.027L539.13 661.44ZM15.1638 136.767L539.13 661.44L540.545 660.027L16.579 135.353L15.1638 136.767ZM-0.391606 152.324L-1.09824 151.616L-2.5134 153.03L-1.80677 153.737L-0.391606 152.324ZM523.575 676.997L-0.391604 152.324L-1.80677 153.737L522.159 678.411L523.575 676.997ZM524.281 677.705L523.575 676.997L522.159 678.411L522.866 679.118L524.281 677.705ZM522.865 680.532L524.28 679.119L522.867 677.704L521.452 679.117L522.865 680.532ZM520.744 679.824L521.451 680.531L522.866 679.118L522.159 678.411L520.744 679.824ZM-3.22194 155.151L520.744 679.824L522.159 678.411L-1.80677 153.737L-3.22194 155.151ZM-3.92857 154.443L-3.22194 155.151L-1.80677 153.737L-2.51341 153.03L-3.92857 154.443ZM-2.51245 151.616L-3.92762 153.029L-2.51435 154.444L-1.09919 153.031L-2.51245 151.616ZM-19.484 170L-18.7773 170.708L-17.3622 169.295L-18.0688 168.587L-19.484 170ZM-19.4849 171.415L-18.0698 170.001L-19.483 168.586L-20.8982 169.999L-19.4849 171.415ZM-18.7773 170.708L-19.484 170L-20.8991 171.414L-20.1925 172.121L-18.7773 170.708ZM505.189 695.381L-18.7773 170.708L-20.1925 172.121L503.774 696.794L505.189 695.381ZM505.895 696.089L505.189 695.381L503.774 696.794L504.48 697.502L505.895 696.089ZM505.896 694.674L504.481 696.088L505.894 697.503L507.31 696.09L505.896 694.674ZM505.189 695.381L505.895 696.089L507.311 694.675L506.604 693.968L505.189 695.381ZM-18.7773 170.708L505.189 695.381L506.604 693.968L-17.3622 169.295L-18.7773 170.708ZM-34.3327 186.265L-35.0394 185.558L-36.4545 186.971L-35.7479 187.678L-34.3327 186.265ZM489.633 710.938L-34.3327 186.265L-35.7479 187.678L488.218 712.352L489.633 710.938ZM490.34 711.646L489.633 710.938L488.218 712.352L488.925 713.059L490.34 711.646ZM488.924 714.473L490.339 713.06L488.926 711.645L487.511 713.058L488.924 714.473ZM486.803 713.765L487.51 714.473L488.925 713.059L488.218 712.352L486.803 713.765ZM-37.1631 189.092L486.803 713.765L488.218 712.352L-35.7479 187.678L-37.1631 189.092ZM-37.8697 188.384L-37.1631 189.092L-35.7479 187.678L-36.4545 186.971L-37.8697 188.384ZM-36.4536 185.557L-37.8687 186.97L-36.4555 188.385L-35.0403 186.972L-36.4536 185.557ZM-53.4251 203.941L-52.7185 204.649L-51.3033 203.236L-52.0099 202.528L-53.4251 203.941ZM-53.426 205.356L-52.0109 203.942L-53.4241 202.527L-54.8393 203.94L-53.426 205.356ZM-52.7185 204.649L-53.4251 203.941L-54.8403 205.355L-54.1336 206.062L-52.7185 204.649ZM471.248 729.322L-52.7185 204.649L-54.1336 206.062L469.832 730.735L471.248 729.322ZM471.954 730.03L471.248 729.322L469.832 730.735L470.539 731.443L471.954 730.03ZM471.955 728.616L470.54 730.029L471.953 731.444L473.369 730.031L471.955 728.616ZM471.248 729.322L471.954 730.03L473.369 728.617L472.663 727.909L471.248 729.322ZM-52.7185 204.649L471.248 729.322L472.663 727.909L-51.3033 203.236L-52.7185 204.649ZM-68.2739 220.206L-68.9805 219.499L-70.3957 220.912L-69.689 221.62L-68.2739 220.206ZM455.692 744.88L-68.2739 220.206L-69.689 221.62L454.277 746.293L455.692 744.88ZM456.399 745.587L455.692 744.88L454.277 746.293L454.984 747L456.399 745.587ZM454.983 748.415L456.398 747.001L454.985 745.586L453.57 746.999L454.983 748.415ZM452.862 747.706L453.569 748.414L454.984 747L454.277 746.293L452.862 747.706ZM-71.1042 223.033L452.862 747.706L454.277 746.293L-69.689 221.62L-71.1042 223.033ZM-71.8108 222.325L-71.1042 223.033L-69.689 221.62L-70.3957 220.912L-71.8108 222.325ZM-70.3947 219.498L-71.8099 220.911L-70.3966 222.326L-68.9814 220.913L-70.3947 219.498ZM-87.3662 237.883L-86.6596 238.59L-85.2444 237.177L-85.9511 236.469L-87.3662 237.883ZM-87.3672 239.297L-85.952 237.884L-87.3653 236.468L-88.7804 237.882L-87.3672 239.297ZM-86.6596 238.59L-87.3662 237.883L-88.7814 239.296L-88.0747 240.003L-86.6596 238.59ZM437.307 763.263L-86.6596 238.59L-88.0748 240.003L435.891 764.677L437.307 763.263ZM438.013 763.971L437.307 763.263L435.891 764.677L436.598 765.384L438.013 763.971ZM438.014 762.557L436.599 763.97L438.012 765.385L439.427 763.972L438.014 762.557ZM437.307 763.263L438.013 763.971L439.428 762.558L438.722 761.85L437.307 763.263ZM-86.6596 238.59L437.307 763.263L438.722 761.85L-85.2444 237.177L-86.6596 238.59ZM-102.215 254.147L-102.922 253.44L-104.337 254.853L-103.63 255.561L-102.215 254.147ZM421.751 778.821L-102.215 254.147L-103.63 255.561L420.336 780.234L421.751 778.821ZM422.458 779.528L421.751 778.821L420.336 780.234L421.043 780.941L422.458 779.528ZM421.042 782.356L422.457 780.942L421.044 779.527L419.628 780.941L421.042 782.356ZM418.921 781.647L419.627 782.355L421.043 780.941L420.336 780.234L418.921 781.647ZM-105.045 256.974L418.921 781.647L420.336 780.234L-103.63 255.561L-105.045 256.974ZM-105.752 256.266L-105.045 256.974L-103.63 255.561L-104.337 254.853L-105.752 256.266ZM-104.336 253.439L-105.751 254.852L-104.338 256.267L-102.923 254.854L-104.336 253.439ZM-121.307 271.824L-120.601 272.531L-119.186 271.118L-119.892 270.41L-121.307 271.824ZM-121.308 273.238L-119.893 271.825L-121.306 270.409L-122.722 271.823L-121.308 273.238ZM-120.601 272.531L-121.307 271.824L-122.723 273.237L-122.016 273.945L-120.601 272.531ZM403.365 797.204L-120.601 272.531L-122.016 273.945L401.95 798.618L403.365 797.204ZM404.072 797.912L403.365 797.204L401.95 798.618L402.657 799.325L404.072 797.912ZM404.073 796.498L402.658 797.911L404.071 799.326L405.486 797.913L404.073 796.498ZM403.365 797.204L404.072 797.912L405.487 796.499L404.781 795.791L403.365 797.204ZM-120.601 272.531L403.365 797.204L404.781 795.791L-119.186 271.118L-120.601 272.531ZM-136.156 288.089L-136.863 287.381L-138.278 288.794L-137.571 289.502L-136.156 288.089ZM387.81 812.762L-136.156 288.089L-137.571 289.502L386.395 814.175L387.81 812.762ZM388.517 813.469L387.81 812.762L386.395 814.175L387.101 814.883L388.517 813.469ZM387.101 816.297L388.516 814.884L387.102 813.468L385.687 814.882L387.101 816.297ZM384.98 815.588L385.686 816.296L387.101 814.883L386.395 814.175L384.98 815.588ZM-138.986 290.915L384.98 815.588L386.395 814.175L-137.571 289.502L-138.986 290.915ZM-139.693 290.207L-138.986 290.915L-137.571 289.502L-138.278 288.794L-139.693 290.207ZM-138.277 287.38L-139.692 288.793L-138.279 290.208L-136.864 288.795L-138.277 287.38ZM-155.248 305.765L-154.542 306.472L-153.127 305.059L-153.833 304.352L-155.248 305.765ZM-155.249 307.179L-153.834 305.766L-155.248 304.351L-156.663 305.764L-155.249 307.179ZM-154.542 306.472L-155.248 305.765L-156.664 307.178L-155.957 307.886L-154.542 306.472ZM369.424 831.146L-154.542 306.472L-155.957 307.886L368.009 832.559L369.424 831.146ZM370.131 831.853L369.424 831.146L368.009 832.559L368.716 833.266L370.131 831.853ZM370.132 830.439L368.717 831.852L370.13 833.267L371.545 831.854L370.132 830.439ZM369.424 831.146L370.131 831.853L371.546 830.44L370.839 829.732L369.424 831.146ZM-154.542 306.472L369.424 831.146L370.839 829.732L-153.127 305.059L-154.542 306.472ZM-170.097 322.03L-170.804 321.322L-172.219 322.735L-171.512 323.443L-170.097 322.03ZM353.869 846.703L-170.097 322.03L-171.512 323.443L352.454 848.116L353.869 846.703ZM354.576 847.41L353.869 846.703L352.454 848.116L353.16 848.824L354.576 847.41ZM353.159 850.238L354.575 848.825L353.161 847.41L351.746 848.823L353.159 850.238ZM351.039 849.529L351.745 850.237L353.16 848.824L352.454 848.116L351.039 849.529ZM-172.928 324.856L351.039 849.529L352.454 848.116L-171.512 323.443L-172.928 324.856ZM-173.634 324.149L-172.928 324.856L-171.512 323.443L-172.219 322.735L-173.634 324.149ZM-172.218 321.321L-173.633 322.734L-172.22 324.15L-170.805 322.736L-172.218 321.321ZM-189.19 339.706L-188.483 340.414L-187.068 339L-187.774 338.293L-189.19 339.706ZM-189.191 341.12L-187.775 339.707L-189.189 338.292L-190.604 339.705L-189.191 341.12ZM-188.483 340.414L-189.19 339.706L-190.605 341.119L-189.898 341.827L-188.483 340.414ZM335.483 865.087L-188.483 340.414L-189.898 341.827L334.068 866.5L335.483 865.087ZM336.19 865.794L335.483 865.087L334.068 866.5L334.775 867.208L336.19 865.794ZM336.191 864.38L334.776 865.793L336.189 867.209L337.604 865.795L336.191 864.38ZM335.483 865.087L336.19 865.794L337.605 864.381L336.898 863.673L335.483 865.087ZM-188.483 340.414L335.483 865.087L336.898 863.673L-187.068 339L-188.483 340.414Z" fill="black"/>
</g>
<path d="M377.53 144.688L378.47 142.923C406.321 157.757 422.512 165.398 440.366 171.324C462.734 178.748 484.041 181.606 506.771 179.583C553.218 175.45 586.565 143.862 594.985 97.3931C595.047 97.0502 595.125 96.6187 595.266 95.8435C596.463 89.2403 597.044 85.8465 597.606 81.9408C600.571 61.3575 599.08 46.9872 590.722 34.0355C579.082 15.9977 552.809 1.45157 531.996 2.01636C518.542 2.38143 510.164 3.17388 501.678 4.83473C495.37 6.06922 466.271 13.7087 460.605 15.0974C435.432 21.2673 421.464 38.1118 426.005 61.4586C428.027 71.8571 431.748 79.8551 437.763 83.7641C443.646 87.5869 452.476 90.6276 458.979 90.6965C464.823 90.7583 469.915 91.0433 479.033 91.7194C499.936 93.2692 507.045 93.2553 515.063 90.629C525.311 87.2724 531.622 79.3802 534.606 64.6695L536.566 65.0671C533.446 80.4475 526.658 88.9355 515.685 92.5297C507.313 95.2721 500.091 95.2862 478.885 93.7139C469.807 93.0408 464.748 92.7576 458.958 92.6964C452.046 92.6232 442.856 89.4585 436.674 85.4412C430.081 81.157 426.159 72.7258 424.042 61.8404C419.274 37.3259 434.008 19.5571 460.129 13.1548C465.736 11.7805 494.912 4.12082 501.294 2.87196C509.901 1.18746 518.386 0.384951 531.941 0.0170911C553.469 -0.567078 580.391 14.3387 592.403 32.9511C601.076 46.3905 602.613 61.2102 599.586 82.2259C599.019 86.1628 598.435 89.5741 597.234 96.2003C597.093 96.9756 597.015 97.407 596.953 97.7497C588.375 145.09 554.307 177.361 506.948 181.575C483.933 183.623 462.354 180.729 439.736 173.222C421.746 167.251 405.475 159.572 377.53 144.688Z" fill="black"/>
<circle cx="144" cy="144" r="114" fill="#75B547"/>
<rect x="362" y="421" width="238" height="240" rx="24" fill="#75B547"/>
</svg>
